<?xml version="1.0" encoding="utf-8" standalone="no"?>
<!DOCTYPE svg PUBLIC "-//W3C//DTD SVG 1.1//EN"
  "http://www.w3.org/Graphics/SVG/1.1/DTD/svg11.dtd">
<!-- Created with matplotlib (https://matplotlib.org/) -->
<svg height="432pt" version="1.1" viewBox="0 0 720 432" width="720pt" xmlns="http://www.w3.org/2000/svg" xmlns:xlink="http://www.w3.org/1999/xlink">
 <metadata>
  <rdf:RDF xmlns:cc="http://creativecommons.org/ns#" xmlns:dc="http://purl.org/dc/elements/1.1/" xmlns:rdf="http://www.w3.org/1999/02/22-rdf-syntax-ns#">
   <cc:Work>
    <dc:type rdf:resource="http://purl.org/dc/dcmitype/StillImage"/>
    <dc:date>2020-12-17T21:08:38.883172</dc:date>
    <dc:format>image/svg+xml</dc:format>
    <dc:creator>
     <cc:Agent>
      <dc:title>Matplotlib v3.3.1, https://matplotlib.org/</dc:title>
     </cc:Agent>
    </dc:creator>
   </cc:Work>
  </rdf:RDF>
 </metadata>
 <defs>
  <style type="text/css">*{stroke-linecap:butt;stroke-linejoin:round;}</style>
 </defs>
 <g id="figure_1">
  <g id="patch_1">
   <path d="M 0 432 
L 720 432 
L 720 0 
L 0 0 
z
" style="fill:#ffffff;"/>
  </g>
  <g id="axes_1">
   <g id="patch_2">
    <path d="M 86.875 343.186813 
L 355.4375 343.186813 
L 355.4375 62 
L 86.875 62 
z
" style="fill:#ffffff;"/>
   </g>
   <g id="matplotlib.axis_1">
    <g id="xtick_1">
     <g id="text_1">
      <!-- $\mathdefault{10^{-5}}$ -->
      <g style="fill:#262626;" transform="translate(98.792411 363.920563)scale(0.11 -0.11)">
       <defs>
        <path d="M 37.25 0 
L 28.46875 0 
L 28.46875 56 
Q 25.296875 52.984375 20.140625 49.953125 
Q 14.984375 46.921875 10.890625 45.40625 
L 10.890625 53.90625 
Q 18.265625 57.375 23.78125 62.296875 
Q 29.296875 67.234375 31.59375 71.875 
L 37.25 71.875 
z
" id="ArialMT-49"/>
        <path d="M 4.15625 35.296875 
Q 4.15625 48 6.765625 55.734375 
Q 9.375 63.484375 14.515625 67.671875 
Q 19.671875 71.875 27.484375 71.875 
Q 33.25 71.875 37.59375 69.546875 
Q 41.9375 67.234375 44.765625 62.859375 
Q 47.609375 58.5 49.21875 52.21875 
Q 50.828125 45.953125 50.828125 35.296875 
Q 50.828125 22.703125 48.234375 14.96875 
Q 45.65625 7.234375 40.5 3 
Q 35.359375 -1.21875 27.484375 -1.21875 
Q 17.140625 -1.21875 11.234375 6.203125 
Q 4.15625 15.140625 4.15625 35.296875 
z
M 13.1875 35.296875 
Q 13.1875 17.671875 17.3125 11.828125 
Q 21.4375 6 27.484375 6 
Q 33.546875 6 37.671875 11.859375 
Q 41.796875 17.71875 41.796875 35.296875 
Q 41.796875 52.984375 37.671875 58.78125 
Q 33.546875 64.59375 27.390625 64.59375 
Q 21.34375 64.59375 17.71875 59.46875 
Q 13.1875 52.9375 13.1875 35.296875 
z
" id="ArialMT-48"/>
        <path d="M 52.828125 31.203125 
L 5.5625 31.203125 
L 5.5625 39.40625 
L 52.828125 39.40625 
z
" id="ArialMT-8722"/>
        <path d="M 4.15625 18.75 
L 13.375 19.53125 
Q 14.40625 12.796875 18.140625 9.390625 
Q 21.875 6 27.15625 6 
Q 33.5 6 37.890625 10.78125 
Q 42.28125 15.578125 42.28125 23.484375 
Q 42.28125 31 38.0625 35.34375 
Q 33.84375 39.703125 27 39.703125 
Q 22.75 39.703125 19.328125 37.765625 
Q 15.921875 35.84375 13.96875 32.765625 
L 5.71875 33.84375 
L 12.640625 70.609375 
L 48.25 70.609375 
L 48.25 62.203125 
L 19.671875 62.203125 
L 15.828125 42.96875 
Q 22.265625 47.46875 29.34375 47.46875 
Q 38.71875 47.46875 45.15625 40.96875 
Q 51.609375 34.46875 51.609375 24.265625 
Q 51.609375 14.546875 45.953125 7.46875 
Q 39.0625 -1.21875 27.15625 -1.21875 
Q 17.390625 -1.21875 11.203125 4.25 
Q 5.03125 9.71875 4.15625 18.75 
z
" id="ArialMT-53"/>
       </defs>
       <use transform="translate(0 0.879688)" xlink:href="#ArialMT-49"/>
       <use transform="translate(55.615234 0.879688)" xlink:href="#ArialMT-48"/>
       <use transform="translate(112.972813 70.573438)scale(0.7)" xlink:href="#ArialMT-8722"/>
       <use transform="translate(153.851719 70.573438)scale(0.7)" xlink:href="#ArialMT-53"/>
      </g>
     </g>
    </g>
    <g id="xtick_2">
     <g id="text_2">
      <!-- $\mathdefault{10^{-4}}$ -->
      <g style="fill:#262626;" transform="translate(156.870991 363.920563)scale(0.11 -0.11)">
       <defs>
        <path d="M 32.328125 0 
L 32.328125 17.140625 
L 1.265625 17.140625 
L 1.265625 25.203125 
L 33.9375 71.578125 
L 41.109375 71.578125 
L 41.109375 25.203125 
L 50.78125 25.203125 
L 50.78125 17.140625 
L 41.109375 17.140625 
L 41.109375 0 
z
M 32.328125 25.203125 
L 32.328125 57.46875 
L 9.90625 25.203125 
z
" id="ArialMT-52"/>
       </defs>
       <use transform="translate(0 0.201563)" xlink:href="#ArialMT-49"/>
       <use transform="translate(55.615234 0.201563)" xlink:href="#ArialMT-48"/>
       <use transform="translate(112.972813 69.895313)scale(0.7)" xlink:href="#ArialMT-8722"/>
       <use transform="translate(153.851719 69.895313)scale(0.7)" xlink:href="#ArialMT-52"/>
      </g>
     </g>
    </g>
    <g id="xtick_3">
     <g id="text_3">
      <!-- $\mathdefault{10^{-3}}$ -->
      <g style="fill:#262626;" transform="translate(214.94957 364.030563)scale(0.11 -0.11)">
       <defs>
        <path d="M 4.203125 18.890625 
L 12.984375 20.0625 
Q 14.5 12.59375 18.140625 9.296875 
Q 21.78125 6 27 6 
Q 33.203125 6 37.46875 10.296875 
Q 41.75 14.59375 41.75 20.953125 
Q 41.75 27 37.796875 30.921875 
Q 33.84375 34.859375 27.734375 34.859375 
Q 25.25 34.859375 21.53125 33.890625 
L 22.515625 41.609375 
Q 23.390625 41.5 23.921875 41.5 
Q 29.546875 41.5 34.03125 44.421875 
Q 38.53125 47.359375 38.53125 53.46875 
Q 38.53125 58.296875 35.25 61.46875 
Q 31.984375 64.65625 26.8125 64.65625 
Q 21.6875 64.65625 18.265625 61.421875 
Q 14.84375 58.203125 13.875 51.765625 
L 5.078125 53.328125 
Q 6.6875 62.15625 12.390625 67.015625 
Q 18.109375 71.875 26.609375 71.875 
Q 32.46875 71.875 37.390625 69.359375 
Q 42.328125 66.84375 44.9375 62.5 
Q 47.5625 58.15625 47.5625 53.265625 
Q 47.5625 48.640625 45.0625 44.828125 
Q 42.578125 41.015625 37.703125 38.765625 
Q 44.046875 37.3125 47.5625 32.6875 
Q 51.078125 28.078125 51.078125 21.140625 
Q 51.078125 11.765625 44.234375 5.25 
Q 37.40625 -1.265625 26.953125 -1.265625 
Q 17.53125 -1.265625 11.296875 4.34375 
Q 5.078125 9.96875 4.203125 18.890625 
z
" id="ArialMT-51"/>
       </defs>
       <use transform="translate(0 0.99375)" xlink:href="#ArialMT-49"/>
       <use transform="translate(55.615234 0.99375)" xlink:href="#ArialMT-48"/>
       <use transform="translate(112.972813 70.6875)scale(0.7)" xlink:href="#ArialMT-8722"/>
       <use transform="translate(153.851719 70.6875)scale(0.7)" xlink:href="#ArialMT-51"/>
      </g>
     </g>
    </g>
    <g id="xtick_4">
     <g id="text_4">
      <!-- $\mathdefault{10^{-2}}$ -->
      <g style="fill:#262626;" transform="translate(273.02815 364.030563)scale(0.11 -0.11)">
       <defs>
        <path d="M 50.34375 8.453125 
L 50.34375 0 
L 3.03125 0 
Q 2.9375 3.171875 4.046875 6.109375 
Q 5.859375 10.9375 9.828125 15.625 
Q 13.8125 20.3125 21.34375 26.46875 
Q 33.015625 36.03125 37.109375 41.625 
Q 41.21875 47.21875 41.21875 52.203125 
Q 41.21875 57.421875 37.46875 61 
Q 33.734375 64.59375 27.734375 64.59375 
Q 21.390625 64.59375 17.578125 60.78125 
Q 13.765625 56.984375 13.71875 50.25 
L 4.6875 51.171875 
Q 5.609375 61.28125 11.65625 66.578125 
Q 17.71875 71.875 27.9375 71.875 
Q 38.234375 71.875 44.234375 66.15625 
Q 50.25 60.453125 50.25 52 
Q 50.25 47.703125 48.484375 43.546875 
Q 46.734375 39.40625 42.65625 34.8125 
Q 38.578125 30.21875 29.109375 22.21875 
Q 21.1875 15.578125 18.9375 13.203125 
Q 16.703125 10.84375 15.234375 8.453125 
z
" id="ArialMT-50"/>
       </defs>
       <use transform="translate(0 0.99375)" xlink:href="#ArialMT-49"/>
       <use transform="translate(55.615234 0.99375)" xlink:href="#ArialMT-48"/>
       <use transform="translate(112.972813 70.6875)scale(0.7)" xlink:href="#ArialMT-8722"/>
       <use transform="translate(153.851719 70.6875)scale(0.7)" xlink:href="#ArialMT-50"/>
      </g>
     </g>
    </g>
    <g id="xtick_5">
     <g id="text_5">
      <!-- $\mathdefault{10^{-1}}$ -->
      <g style="fill:#262626;" transform="translate(331.10673 364.030563)scale(0.11 -0.11)">
       <use transform="translate(0 0.99375)" xlink:href="#ArialMT-49"/>
       <use transform="translate(55.615234 0.99375)" xlink:href="#ArialMT-48"/>
       <use transform="translate(112.972813 70.6875)scale(0.7)" xlink:href="#ArialMT-8722"/>
       <use transform="translate(153.851719 70.6875)scale(0.7)" xlink:href="#ArialMT-49"/>
      </g>
     </g>
    </g>
    <g id="xtick_6"/>
    <g id="xtick_7"/>
    <g id="xtick_8"/>
    <g id="xtick_9"/>
    <g id="xtick_10"/>
    <g id="xtick_11"/>
    <g id="xtick_12"/>
    <g id="xtick_13"/>
    <g id="xtick_14"/>
    <g id="xtick_15"/>
    <g id="xtick_16"/>
    <g id="xtick_17"/>
    <g id="xtick_18"/>
    <g id="xtick_19"/>
    <g id="xtick_20"/>
    <g id="xtick_21"/>
    <g id="xtick_22"/>
    <g id="xtick_23"/>
    <g id="xtick_24"/>
    <g id="xtick_25"/>
    <g id="xtick_26"/>
    <g id="xtick_27"/>
    <g id="xtick_28"/>
    <g id="xtick_29"/>
    <g id="xtick_30"/>
    <g id="xtick_31"/>
    <g id="xtick_32"/>
    <g id="xtick_33"/>
    <g id="xtick_34"/>
    <g id="xtick_35"/>
    <g id="xtick_36"/>
    <g id="xtick_37"/>
    <g id="xtick_38"/>
    <g id="xtick_39"/>
    <g id="xtick_40"/>
    <g id="xtick_41"/>
    <g id="xtick_42"/>
    <g id="text_6">
     <!-- Activity of the source subreddit (log) -->
     <g style="fill:#262626;" transform="translate(125.78625 378.952438)scale(0.12 -0.12)">
      <defs>
       <path d="M -0.140625 0 
L 27.34375 71.578125 
L 37.546875 71.578125 
L 66.84375 0 
L 56.0625 0 
L 47.703125 21.6875 
L 17.78125 21.6875 
L 9.90625 0 
z
M 20.515625 29.390625 
L 44.78125 29.390625 
L 37.3125 49.21875 
Q 33.890625 58.25 32.234375 64.0625 
Q 30.859375 57.171875 28.375 50.390625 
z
" id="ArialMT-65"/>
       <path d="M 40.4375 19 
L 49.078125 17.875 
Q 47.65625 8.9375 41.8125 3.875 
Q 35.984375 -1.171875 27.484375 -1.171875 
Q 16.84375 -1.171875 10.375 5.78125 
Q 3.90625 12.75 3.90625 25.734375 
Q 3.90625 34.125 6.6875 40.421875 
Q 9.46875 46.734375 15.15625 49.875 
Q 20.84375 53.03125 27.546875 53.03125 
Q 35.984375 53.03125 41.359375 48.75 
Q 46.734375 44.484375 48.25 36.625 
L 39.703125 35.296875 
Q 38.484375 40.53125 35.375 43.15625 
Q 32.28125 45.796875 27.875 45.796875 
Q 21.234375 45.796875 17.078125 41.03125 
Q 12.9375 36.28125 12.9375 25.984375 
Q 12.9375 15.53125 16.9375 10.796875 
Q 20.953125 6.0625 27.390625 6.0625 
Q 32.5625 6.0625 36.03125 9.234375 
Q 39.5 12.40625 40.4375 19 
z
" id="ArialMT-99"/>
       <path d="M 25.78125 7.859375 
L 27.046875 0.09375 
Q 23.34375 -0.6875 20.40625 -0.6875 
Q 15.625 -0.6875 12.984375 0.828125 
Q 10.359375 2.34375 9.28125 4.8125 
Q 8.203125 7.28125 8.203125 15.1875 
L 8.203125 45.015625 
L 1.765625 45.015625 
L 1.765625 51.859375 
L 8.203125 51.859375 
L 8.203125 64.703125 
L 16.9375 69.96875 
L 16.9375 51.859375 
L 25.78125 51.859375 
L 25.78125 45.015625 
L 16.9375 45.015625 
L 16.9375 14.703125 
Q 16.9375 10.9375 17.40625 9.859375 
Q 17.875 8.796875 18.921875 8.15625 
Q 19.96875 7.515625 21.921875 7.515625 
Q 23.390625 7.515625 25.78125 7.859375 
z
" id="ArialMT-116"/>
       <path d="M 6.640625 61.46875 
L 6.640625 71.578125 
L 15.4375 71.578125 
L 15.4375 61.46875 
z
M 6.640625 0 
L 6.640625 51.859375 
L 15.4375 51.859375 
L 15.4375 0 
z
" id="ArialMT-105"/>
       <path d="M 21 0 
L 1.265625 51.859375 
L 10.546875 51.859375 
L 21.6875 20.796875 
Q 23.484375 15.765625 25 10.359375 
Q 26.171875 14.453125 28.265625 20.21875 
L 39.796875 51.859375 
L 48.828125 51.859375 
L 29.203125 0 
z
" id="ArialMT-118"/>
       <path d="M 6.203125 -19.96875 
L 5.21875 -11.71875 
Q 8.109375 -12.5 10.25 -12.5 
Q 13.1875 -12.5 14.9375 -11.515625 
Q 16.703125 -10.546875 17.828125 -8.796875 
Q 18.65625 -7.46875 20.515625 -2.25 
Q 20.75 -1.515625 21.296875 -0.09375 
L 1.609375 51.859375 
L 11.078125 51.859375 
L 21.875 21.828125 
Q 23.96875 16.109375 25.640625 9.8125 
Q 27.15625 15.875 29.25 21.625 
L 40.328125 51.859375 
L 49.125 51.859375 
L 29.390625 -0.875 
Q 26.21875 -9.421875 24.46875 -12.640625 
Q 22.125 -17 19.09375 -19.015625 
Q 16.0625 -21.046875 11.859375 -21.046875 
Q 9.328125 -21.046875 6.203125 -19.96875 
z
" id="ArialMT-121"/>
       <path id="ArialMT-32"/>
       <path d="M 3.328125 25.921875 
Q 3.328125 40.328125 11.328125 47.265625 
Q 18.015625 53.03125 27.640625 53.03125 
Q 38.328125 53.03125 45.109375 46.015625 
Q 51.90625 39.015625 51.90625 26.65625 
Q 51.90625 16.65625 48.90625 10.90625 
Q 45.90625 5.171875 40.15625 2 
Q 34.421875 -1.171875 27.640625 -1.171875 
Q 16.75 -1.171875 10.03125 5.8125 
Q 3.328125 12.796875 3.328125 25.921875 
z
M 12.359375 25.921875 
Q 12.359375 15.96875 16.703125 11.015625 
Q 21.046875 6.0625 27.640625 6.0625 
Q 34.1875 6.0625 38.53125 11.03125 
Q 42.875 16.015625 42.875 26.21875 
Q 42.875 35.84375 38.5 40.796875 
Q 34.125 45.75 27.640625 45.75 
Q 21.046875 45.75 16.703125 40.8125 
Q 12.359375 35.890625 12.359375 25.921875 
z
" id="ArialMT-111"/>
       <path d="M 8.6875 0 
L 8.6875 45.015625 
L 0.921875 45.015625 
L 0.921875 51.859375 
L 8.6875 51.859375 
L 8.6875 57.375 
Q 8.6875 62.59375 9.625 65.140625 
Q 10.890625 68.5625 14.078125 70.671875 
Q 17.28125 72.796875 23.046875 72.796875 
Q 26.765625 72.796875 31.25 71.921875 
L 29.9375 64.265625 
Q 27.203125 64.75 24.75 64.75 
Q 20.75 64.75 19.09375 63.03125 
Q 17.4375 61.328125 17.4375 56.640625 
L 17.4375 51.859375 
L 27.546875 51.859375 
L 27.546875 45.015625 
L 17.4375 45.015625 
L 17.4375 0 
z
" id="ArialMT-102"/>
       <path d="M 6.59375 0 
L 6.59375 71.578125 
L 15.375 71.578125 
L 15.375 45.90625 
Q 21.53125 53.03125 30.90625 53.03125 
Q 36.671875 53.03125 40.921875 50.75 
Q 45.171875 48.484375 47 44.484375 
Q 48.828125 40.484375 48.828125 32.859375 
L 48.828125 0 
L 40.046875 0 
L 40.046875 32.859375 
Q 40.046875 39.453125 37.1875 42.453125 
Q 34.328125 45.453125 29.109375 45.453125 
Q 25.203125 45.453125 21.75 43.421875 
Q 18.3125 41.40625 16.84375 37.9375 
Q 15.375 34.46875 15.375 28.375 
L 15.375 0 
z
" id="ArialMT-104"/>
       <path d="M 42.09375 16.703125 
L 51.171875 15.578125 
Q 49.03125 7.625 43.21875 3.21875 
Q 37.40625 -1.171875 28.375 -1.171875 
Q 17 -1.171875 10.328125 5.828125 
Q 3.65625 12.84375 3.65625 25.484375 
Q 3.65625 38.578125 10.390625 45.796875 
Q 17.140625 53.03125 27.875 53.03125 
Q 38.28125 53.03125 44.875 45.953125 
Q 51.46875 38.875 51.46875 26.03125 
Q 51.46875 25.25 51.421875 23.6875 
L 12.75 23.6875 
Q 13.234375 15.140625 17.578125 10.59375 
Q 21.921875 6.0625 28.421875 6.0625 
Q 33.25 6.0625 36.671875 8.59375 
Q 40.09375 11.140625 42.09375 16.703125 
z
M 13.234375 30.90625 
L 42.1875 30.90625 
Q 41.609375 37.453125 38.875 40.71875 
Q 34.671875 45.796875 27.984375 45.796875 
Q 21.921875 45.796875 17.796875 41.75 
Q 13.671875 37.703125 13.234375 30.90625 
z
" id="ArialMT-101"/>
       <path d="M 3.078125 15.484375 
L 11.765625 16.84375 
Q 12.5 11.625 15.84375 8.84375 
Q 19.1875 6.0625 25.203125 6.0625 
Q 31.25 6.0625 34.171875 8.515625 
Q 37.109375 10.984375 37.109375 14.3125 
Q 37.109375 17.28125 34.515625 19 
Q 32.71875 20.171875 25.53125 21.96875 
Q 15.875 24.421875 12.140625 26.203125 
Q 8.40625 27.984375 6.46875 31.125 
Q 4.546875 34.28125 4.546875 38.09375 
Q 4.546875 41.546875 6.125 44.5 
Q 7.71875 47.46875 10.453125 49.421875 
Q 12.5 50.921875 16.03125 51.96875 
Q 19.578125 53.03125 23.640625 53.03125 
Q 29.734375 53.03125 34.34375 51.265625 
Q 38.96875 49.515625 41.15625 46.5 
Q 43.359375 43.5 44.1875 38.484375 
L 35.59375 37.3125 
Q 35.015625 41.3125 32.203125 43.546875 
Q 29.390625 45.796875 24.265625 45.796875 
Q 18.21875 45.796875 15.625 43.796875 
Q 13.03125 41.796875 13.03125 39.109375 
Q 13.03125 37.40625 14.109375 36.03125 
Q 15.1875 34.625 17.484375 33.6875 
Q 18.796875 33.203125 25.25 31.453125 
Q 34.578125 28.953125 38.25 27.359375 
Q 41.9375 25.78125 44.03125 22.75 
Q 46.140625 19.734375 46.140625 15.234375 
Q 46.140625 10.84375 43.578125 6.953125 
Q 41.015625 3.078125 36.171875 0.953125 
Q 31.34375 -1.171875 25.25 -1.171875 
Q 15.140625 -1.171875 9.84375 3.03125 
Q 4.546875 7.234375 3.078125 15.484375 
z
" id="ArialMT-115"/>
       <path d="M 40.578125 0 
L 40.578125 7.625 
Q 34.515625 -1.171875 24.125 -1.171875 
Q 19.53125 -1.171875 15.546875 0.578125 
Q 11.578125 2.34375 9.640625 5 
Q 7.71875 7.671875 6.9375 11.53125 
Q 6.390625 14.109375 6.390625 19.734375 
L 6.390625 51.859375 
L 15.1875 51.859375 
L 15.1875 23.09375 
Q 15.1875 16.21875 15.71875 13.8125 
Q 16.546875 10.359375 19.234375 8.375 
Q 21.921875 6.390625 25.875 6.390625 
Q 29.828125 6.390625 33.296875 8.421875 
Q 36.765625 10.453125 38.203125 13.9375 
Q 39.65625 17.4375 39.65625 24.078125 
L 39.65625 51.859375 
L 48.4375 51.859375 
L 48.4375 0 
z
" id="ArialMT-117"/>
       <path d="M 6.5 0 
L 6.5 51.859375 
L 14.40625 51.859375 
L 14.40625 44 
Q 17.4375 49.515625 20 51.265625 
Q 22.5625 53.03125 25.640625 53.03125 
Q 30.078125 53.03125 34.671875 50.203125 
L 31.640625 42.046875 
Q 28.421875 43.953125 25.203125 43.953125 
Q 22.3125 43.953125 20.015625 42.21875 
Q 17.71875 40.484375 16.75 37.40625 
Q 15.28125 32.71875 15.28125 27.15625 
L 15.28125 0 
z
" id="ArialMT-114"/>
       <path d="M 14.703125 0 
L 6.546875 0 
L 6.546875 71.578125 
L 15.328125 71.578125 
L 15.328125 46.046875 
Q 20.90625 53.03125 29.546875 53.03125 
Q 34.328125 53.03125 38.59375 51.09375 
Q 42.875 49.171875 45.625 45.671875 
Q 48.390625 42.1875 49.953125 37.25 
Q 51.515625 32.328125 51.515625 26.703125 
Q 51.515625 13.375 44.921875 6.09375 
Q 38.328125 -1.171875 29.109375 -1.171875 
Q 19.921875 -1.171875 14.703125 6.5 
z
M 14.59375 26.3125 
Q 14.59375 17 17.140625 12.84375 
Q 21.296875 6.0625 28.375 6.0625 
Q 34.125 6.0625 38.328125 11.0625 
Q 42.53125 16.0625 42.53125 25.984375 
Q 42.53125 36.140625 38.5 40.96875 
Q 34.46875 45.796875 28.765625 45.796875 
Q 23 45.796875 18.796875 40.796875 
Q 14.59375 35.796875 14.59375 26.3125 
z
" id="ArialMT-98"/>
       <path d="M 40.234375 0 
L 40.234375 6.546875 
Q 35.296875 -1.171875 25.734375 -1.171875 
Q 19.53125 -1.171875 14.328125 2.25 
Q 9.125 5.671875 6.265625 11.796875 
Q 3.421875 17.921875 3.421875 25.875 
Q 3.421875 33.640625 6 39.96875 
Q 8.59375 46.296875 13.765625 49.65625 
Q 18.953125 53.03125 25.34375 53.03125 
Q 30.03125 53.03125 33.6875 51.046875 
Q 37.359375 49.078125 39.65625 45.90625 
L 39.65625 71.578125 
L 48.390625 71.578125 
L 48.390625 0 
z
M 12.453125 25.875 
Q 12.453125 15.921875 16.640625 10.984375 
Q 20.84375 6.0625 26.5625 6.0625 
Q 32.328125 6.0625 36.34375 10.765625 
Q 40.375 15.484375 40.375 25.140625 
Q 40.375 35.796875 36.265625 40.765625 
Q 32.171875 45.75 26.171875 45.75 
Q 20.3125 45.75 16.375 40.96875 
Q 12.453125 36.1875 12.453125 25.875 
z
" id="ArialMT-100"/>
       <path d="M 23.390625 -21.046875 
Q 16.109375 -11.859375 11.078125 0.4375 
Q 6.0625 12.75 6.0625 25.921875 
Q 6.0625 37.546875 9.8125 48.1875 
Q 14.203125 60.546875 23.390625 72.796875 
L 29.6875 72.796875 
Q 23.78125 62.640625 21.875 58.296875 
Q 18.890625 51.5625 17.1875 44.234375 
Q 15.09375 35.109375 15.09375 25.875 
Q 15.09375 2.390625 29.6875 -21.046875 
z
" id="ArialMT-40"/>
       <path d="M 6.390625 0 
L 6.390625 71.578125 
L 15.1875 71.578125 
L 15.1875 0 
z
" id="ArialMT-108"/>
       <path d="M 4.984375 -4.296875 
L 13.53125 -5.5625 
Q 14.0625 -9.515625 16.5 -11.328125 
Q 19.78125 -13.765625 25.4375 -13.765625 
Q 31.546875 -13.765625 34.859375 -11.328125 
Q 38.1875 -8.890625 39.359375 -4.5 
Q 40.046875 -1.8125 39.984375 6.78125 
Q 34.234375 0 25.640625 0 
Q 14.9375 0 9.078125 7.71875 
Q 3.21875 15.4375 3.21875 26.21875 
Q 3.21875 33.640625 5.90625 39.90625 
Q 8.59375 46.1875 13.6875 49.609375 
Q 18.796875 53.03125 25.6875 53.03125 
Q 34.859375 53.03125 40.828125 45.609375 
L 40.828125 51.859375 
L 48.921875 51.859375 
L 48.921875 7.03125 
Q 48.921875 -5.078125 46.453125 -10.125 
Q 44 -15.1875 38.640625 -18.109375 
Q 33.296875 -21.046875 25.484375 -21.046875 
Q 16.21875 -21.046875 10.5 -16.875 
Q 4.78125 -12.703125 4.984375 -4.296875 
z
M 12.25 26.859375 
Q 12.25 16.65625 16.296875 11.96875 
Q 20.359375 7.28125 26.46875 7.28125 
Q 32.515625 7.28125 36.609375 11.9375 
Q 40.71875 16.609375 40.71875 26.5625 
Q 40.71875 36.078125 36.5 40.90625 
Q 32.28125 45.75 26.3125 45.75 
Q 20.453125 45.75 16.34375 40.984375 
Q 12.25 36.234375 12.25 26.859375 
z
" id="ArialMT-103"/>
       <path d="M 12.359375 -21.046875 
L 6.0625 -21.046875 
Q 20.65625 2.390625 20.65625 25.875 
Q 20.65625 35.0625 18.5625 44.09375 
Q 16.890625 51.421875 13.921875 58.15625 
Q 12.015625 62.546875 6.0625 72.796875 
L 12.359375 72.796875 
Q 21.53125 60.546875 25.921875 48.1875 
Q 29.6875 37.546875 29.6875 25.921875 
Q 29.6875 12.75 24.625 0.4375 
Q 19.578125 -11.859375 12.359375 -21.046875 
z
" id="ArialMT-41"/>
      </defs>
      <use xlink:href="#ArialMT-65"/>
      <use x="66.699219" xlink:href="#ArialMT-99"/>
      <use x="116.699219" xlink:href="#ArialMT-116"/>
      <use x="144.482422" xlink:href="#ArialMT-105"/>
      <use x="166.699219" xlink:href="#ArialMT-118"/>
      <use x="216.699219" xlink:href="#ArialMT-105"/>
      <use x="238.916016" xlink:href="#ArialMT-116"/>
      <use x="266.699219" xlink:href="#ArialMT-121"/>
      <use x="316.699219" xlink:href="#ArialMT-32"/>
      <use x="344.482422" xlink:href="#ArialMT-111"/>
      <use x="400.097656" xlink:href="#ArialMT-102"/>
      <use x="427.880859" xlink:href="#ArialMT-32"/>
      <use x="455.664062" xlink:href="#ArialMT-116"/>
      <use x="483.447266" xlink:href="#ArialMT-104"/>
      <use x="539.0625" xlink:href="#ArialMT-101"/>
      <use x="594.677734" xlink:href="#ArialMT-32"/>
      <use x="622.460938" xlink:href="#ArialMT-115"/>
      <use x="672.460938" xlink:href="#ArialMT-111"/>
      <use x="728.076172" xlink:href="#ArialMT-117"/>
      <use x="783.691406" xlink:href="#ArialMT-114"/>
      <use x="816.992188" xlink:href="#ArialMT-99"/>
      <use x="866.992188" xlink:href="#ArialMT-101"/>
      <use x="922.607422" xlink:href="#ArialMT-32"/>
      <use x="950.390625" xlink:href="#ArialMT-115"/>
      <use x="1000.390625" xlink:href="#ArialMT-117"/>
      <use x="1056.005859" xlink:href="#ArialMT-98"/>
      <use x="1111.621094" xlink:href="#ArialMT-114"/>
      <use x="1144.921875" xlink:href="#ArialMT-101"/>
      <use x="1200.537109" xlink:href="#ArialMT-100"/>
      <use x="1256.152344" xlink:href="#ArialMT-100"/>
      <use x="1311.767578" xlink:href="#ArialMT-105"/>
      <use x="1333.984375" xlink:href="#ArialMT-116"/>
      <use x="1361.767578" xlink:href="#ArialMT-32"/>
      <use x="1389.550781" xlink:href="#ArialMT-40"/>
      <use x="1422.851562" xlink:href="#ArialMT-108"/>
      <use x="1445.068359" xlink:href="#ArialMT-111"/>
      <use x="1500.683594" xlink:href="#ArialMT-103"/>
      <use x="1556.298828" xlink:href="#ArialMT-41"/>
     </g>
    </g>
   </g>
   <g id="matplotlib.axis_2">
    <g id="ytick_1">
     <g id="text_7">
      <!-- 0.0 -->
      <g style="fill:#262626;" transform="translate(62.085 347.123609)scale(0.11 -0.11)">
       <defs>
        <path d="M 9.078125 0 
L 9.078125 10.015625 
L 19.09375 10.015625 
L 19.09375 0 
z
" id="ArialMT-46"/>
       </defs>
       <use xlink:href="#ArialMT-48"/>
       <use x="55.615234" xlink:href="#ArialMT-46"/>
       <use x="83.398438" xlink:href="#ArialMT-48"/>
      </g>
     </g>
    </g>
    <g id="ytick_2">
     <g id="text_8">
      <!-- 0.1 -->
      <g style="fill:#262626;" transform="translate(62.085 296.331297)scale(0.11 -0.11)">
       <use xlink:href="#ArialMT-48"/>
       <use x="55.615234" xlink:href="#ArialMT-46"/>
       <use x="83.398438" xlink:href="#ArialMT-49"/>
      </g>
     </g>
    </g>
    <g id="ytick_3">
     <g id="text_9">
      <!-- 0.2 -->
      <g style="fill:#262626;" transform="translate(62.085 245.538984)scale(0.11 -0.11)">
       <use xlink:href="#ArialMT-48"/>
       <use x="55.615234" xlink:href="#ArialMT-46"/>
       <use x="83.398438" xlink:href="#ArialMT-50"/>
      </g>
     </g>
    </g>
    <g id="ytick_4">
     <g id="text_10">
      <!-- 0.3 -->
      <g style="fill:#262626;" transform="translate(62.085 194.746671)scale(0.11 -0.11)">
       <use xlink:href="#ArialMT-48"/>
       <use x="55.615234" xlink:href="#ArialMT-46"/>
       <use x="83.398438" xlink:href="#ArialMT-51"/>
      </g>
     </g>
    </g>
    <g id="ytick_5">
     <g id="text_11">
      <!-- 0.4 -->
      <g style="fill:#262626;" transform="translate(62.085 143.954359)scale(0.11 -0.11)">
       <use xlink:href="#ArialMT-48"/>
       <use x="55.615234" xlink:href="#ArialMT-46"/>
       <use x="83.398438" xlink:href="#ArialMT-52"/>
      </g>
     </g>
    </g>
    <g id="ytick_6">
     <g id="text_12">
      <!-- 0.5 -->
      <g style="fill:#262626;" transform="translate(62.085 93.162046)scale(0.11 -0.11)">
       <use xlink:href="#ArialMT-48"/>
       <use x="55.615234" xlink:href="#ArialMT-46"/>
       <use x="83.398438" xlink:href="#ArialMT-53"/>
      </g>
     </g>
    </g>
    <g id="text_13">
     <!-- Distribution -->
     <g style="fill:#262626;" transform="translate(55.7 232.603719)rotate(-90)scale(0.12 -0.12)">
      <defs>
       <path d="M 7.71875 0 
L 7.71875 71.578125 
L 32.375 71.578125 
Q 40.71875 71.578125 45.125 70.5625 
Q 51.265625 69.140625 55.609375 65.4375 
Q 61.28125 60.640625 64.078125 53.1875 
Q 66.890625 45.75 66.890625 36.1875 
Q 66.890625 28.03125 64.984375 21.734375 
Q 63.09375 15.4375 60.109375 11.296875 
Q 57.125 7.171875 53.578125 4.796875 
Q 50.046875 2.4375 45.046875 1.21875 
Q 40.046875 0 33.546875 0 
z
M 17.1875 8.453125 
L 32.46875 8.453125 
Q 39.546875 8.453125 43.578125 9.765625 
Q 47.609375 11.078125 50 13.484375 
Q 53.375 16.84375 55.25 22.53125 
Q 57.125 28.21875 57.125 36.328125 
Q 57.125 47.5625 53.4375 53.59375 
Q 49.75 59.625 44.484375 61.671875 
Q 40.671875 63.140625 32.234375 63.140625 
L 17.1875 63.140625 
z
" id="ArialMT-68"/>
       <path d="M 6.59375 0 
L 6.59375 51.859375 
L 14.5 51.859375 
L 14.5 44.484375 
Q 20.21875 53.03125 31 53.03125 
Q 35.6875 53.03125 39.625 51.34375 
Q 43.5625 49.65625 45.515625 46.921875 
Q 47.46875 44.1875 48.25 40.4375 
Q 48.734375 37.984375 48.734375 31.890625 
L 48.734375 0 
L 39.9375 0 
L 39.9375 31.546875 
Q 39.9375 36.921875 38.90625 39.578125 
Q 37.890625 42.234375 35.28125 43.8125 
Q 32.671875 45.40625 29.15625 45.40625 
Q 23.53125 45.40625 19.453125 41.84375 
Q 15.375 38.28125 15.375 28.328125 
L 15.375 0 
z
" id="ArialMT-110"/>
      </defs>
      <use xlink:href="#ArialMT-68"/>
      <use x="72.216797" xlink:href="#ArialMT-105"/>
      <use x="94.433594" xlink:href="#ArialMT-115"/>
      <use x="144.433594" xlink:href="#ArialMT-116"/>
      <use x="172.216797" xlink:href="#ArialMT-114"/>
      <use x="205.517578" xlink:href="#ArialMT-105"/>
      <use x="227.734375" xlink:href="#ArialMT-98"/>
      <use x="283.349609" xlink:href="#ArialMT-117"/>
      <use x="338.964844" xlink:href="#ArialMT-116"/>
      <use x="366.748047" xlink:href="#ArialMT-105"/>
      <use x="388.964844" xlink:href="#ArialMT-111"/>
      <use x="444.580078" xlink:href="#ArialMT-110"/>
     </g>
    </g>
   </g>
   <g id="PolyCollection_1">
    <defs>
     <path d="M 99.082386 -89.747212 
L 99.082386 -88.813187 
L 100.309259 -88.813187 
L 101.536132 -88.813187 
L 102.763005 -88.813187 
L 103.989878 -88.813187 
L 105.216751 -88.813187 
L 106.443624 -88.813187 
L 107.670497 -88.813187 
L 108.89737 -88.813187 
L 110.124243 -88.813187 
L 111.351116 -88.813187 
L 112.577989 -88.813187 
L 113.804862 -88.813187 
L 115.031735 -88.813187 
L 116.258608 -88.813187 
L 117.485481 -88.813187 
L 118.712354 -88.813187 
L 119.939227 -88.813187 
L 121.1661 -88.813187 
L 122.392973 -88.813187 
L 123.619846 -88.813187 
L 124.846719 -88.813187 
L 126.073592 -88.813187 
L 127.300465 -88.813187 
L 128.527338 -88.813187 
L 129.754211 -88.813187 
L 130.981084 -88.813187 
L 132.207957 -88.813187 
L 133.43483 -88.813187 
L 134.661703 -88.813187 
L 135.888576 -88.813187 
L 137.115449 -88.813187 
L 138.342322 -88.813187 
L 139.569195 -88.813187 
L 140.796068 -88.813187 
L 142.022941 -88.813187 
L 143.249814 -88.813187 
L 144.476687 -88.813187 
L 145.70356 -88.813187 
L 146.930433 -88.813187 
L 148.157306 -88.813187 
L 149.384179 -88.813187 
L 150.611052 -88.813187 
L 151.837925 -88.813187 
L 153.064798 -88.813187 
L 154.291671 -88.813187 
L 155.518544 -88.813187 
L 156.745417 -88.813187 
L 157.97229 -88.813187 
L 159.199163 -88.813187 
L 160.426036 -88.813187 
L 161.652909 -88.813187 
L 162.879782 -88.813187 
L 164.106655 -88.813187 
L 165.333528 -88.813187 
L 166.560401 -88.813187 
L 167.787274 -88.813187 
L 169.014147 -88.813187 
L 170.24102 -88.813187 
L 171.467893 -88.813187 
L 172.694766 -88.813187 
L 173.921639 -88.813187 
L 175.148512 -88.813187 
L 176.375385 -88.813187 
L 177.602258 -88.813187 
L 178.829131 -88.813187 
L 180.056004 -88.813187 
L 181.282877 -88.813187 
L 182.50975 -88.813187 
L 183.736623 -88.813187 
L 184.963496 -88.813187 
L 186.190369 -88.813187 
L 187.417242 -88.813187 
L 188.644115 -88.813187 
L 189.870988 -88.813187 
L 191.097861 -88.813187 
L 192.324734 -88.813187 
L 193.551607 -88.813187 
L 194.77848 -88.813187 
L 196.005353 -88.813187 
L 197.232226 -88.813187 
L 198.459099 -88.813187 
L 199.685972 -88.813187 
L 200.912845 -88.813187 
L 202.139718 -88.813187 
L 203.366591 -88.813187 
L 204.593464 -88.813187 
L 205.820337 -88.813187 
L 207.04721 -88.813187 
L 208.274083 -88.813187 
L 209.500956 -88.813187 
L 210.727829 -88.813187 
L 211.954702 -88.813187 
L 213.181575 -88.813187 
L 214.408448 -88.813187 
L 215.635321 -88.813187 
L 216.862194 -88.813187 
L 218.089067 -88.813187 
L 219.31594 -88.813187 
L 220.542813 -88.813187 
L 221.769687 -88.813187 
L 222.99656 -88.813187 
L 224.223433 -88.813187 
L 225.450306 -88.813187 
L 226.677179 -88.813187 
L 227.904052 -88.813187 
L 229.130925 -88.813187 
L 230.357798 -88.813187 
L 231.584671 -88.813187 
L 232.811544 -88.813187 
L 234.038417 -88.813187 
L 235.26529 -88.813187 
L 236.492163 -88.813187 
L 237.719036 -88.813187 
L 238.945909 -88.813187 
L 240.172782 -88.813187 
L 241.399655 -88.813187 
L 242.626528 -88.813187 
L 243.853401 -88.813187 
L 245.080274 -88.813187 
L 246.307147 -88.813187 
L 247.53402 -88.813187 
L 248.760893 -88.813187 
L 249.987766 -88.813187 
L 251.214639 -88.813187 
L 252.441512 -88.813187 
L 253.668385 -88.813187 
L 254.895258 -88.813187 
L 256.122131 -88.813187 
L 257.349004 -88.813187 
L 258.575877 -88.813187 
L 259.80275 -88.813187 
L 261.029623 -88.813187 
L 262.256496 -88.813187 
L 263.483369 -88.813187 
L 264.710242 -88.813187 
L 265.937115 -88.813187 
L 267.163988 -88.813187 
L 268.390861 -88.813187 
L 269.617734 -88.813187 
L 270.844607 -88.813187 
L 272.07148 -88.813187 
L 273.298353 -88.813187 
L 274.525226 -88.813187 
L 275.752099 -88.813187 
L 276.978972 -88.813187 
L 278.205845 -88.813187 
L 279.432718 -88.813187 
L 280.659591 -88.813187 
L 281.886464 -88.813187 
L 283.113337 -88.813187 
L 284.34021 -88.813187 
L 285.567083 -88.813187 
L 286.793956 -88.813187 
L 288.020829 -88.813187 
L 289.247702 -88.813187 
L 290.474575 -88.813187 
L 291.701448 -88.813187 
L 292.928321 -88.813187 
L 294.155194 -88.813187 
L 295.382067 -88.813187 
L 296.60894 -88.813187 
L 297.835813 -88.813187 
L 299.062686 -88.813187 
L 300.289559 -88.813187 
L 301.516432 -88.813187 
L 302.743305 -88.813187 
L 303.970178 -88.813187 
L 305.197051 -88.813187 
L 306.423924 -88.813187 
L 307.650797 -88.813187 
L 308.87767 -88.813187 
L 310.104543 -88.813187 
L 311.331416 -88.813187 
L 312.558289 -88.813187 
L 313.785162 -88.813187 
L 315.012035 -88.813187 
L 316.238908 -88.813187 
L 317.465781 -88.813187 
L 318.692654 -88.813187 
L 319.919527 -88.813187 
L 321.1464 -88.813187 
L 322.373273 -88.813187 
L 323.600146 -88.813187 
L 324.827019 -88.813187 
L 326.053892 -88.813187 
L 327.280765 -88.813187 
L 328.507638 -88.813187 
L 329.734511 -88.813187 
L 330.961384 -88.813187 
L 332.188257 -88.813187 
L 333.41513 -88.813187 
L 334.642003 -88.813187 
L 335.868876 -88.813187 
L 337.095749 -88.813187 
L 338.322622 -88.813187 
L 339.549495 -88.813187 
L 340.776368 -88.813187 
L 342.003241 -88.813187 
L 343.230114 -88.813187 
L 343.230114 -89.654254 
L 343.230114 -89.654254 
L 342.003241 -90.242999 
L 340.776368 -91.168088 
L 339.549495 -92.570799 
L 338.322622 -94.622133 
L 337.095749 -97.513388 
L 335.868876 -101.437532 
L 334.642003 -106.560699 
L 333.41513 -112.985457 
L 332.188257 -120.710374 
L 330.961384 -129.593276 
L 329.734511 -139.327462 
L 328.507638 -149.440097 
L 327.280765 -159.319303 
L 326.053892 -168.27135 
L 324.827019 -175.602573 
L 323.600146 -180.713968 
L 322.373273 -183.191743 
L 321.1464 -182.876079 
L 319.919527 -179.893572 
L 318.692654 -174.645776 
L 317.465781 -167.755168 
L 316.238908 -159.978445 
L 315.012035 -152.103174 
L 313.785162 -144.846181 
L 312.558289 -138.770449 
L 311.331416 -134.232586 
L 310.104543 -131.366536 
L 308.87767 -130.102693 
L 307.650797 -130.215991 
L 306.423924 -131.392663 
L 305.197051 -133.303235 
L 303.970178 -135.66913 
L 302.743305 -138.31179 
L 301.516432 -141.176501 
L 300.289559 -144.327674 
L 299.062686 -147.917812 
L 297.835813 -152.137619 
L 296.60894 -157.158774 
L 295.382067 -163.082579 
L 294.155194 -169.906463 
L 292.928321 -177.516221 
L 291.701448 -185.705748 
L 290.474575 -194.219254 
L 289.247702 -202.805309 
L 288.020829 -211.268995 
L 286.793956 -219.508798 
L 285.567083 -227.528706 
L 284.34021 -235.422238 
L 283.113337 -243.332308 
L 281.886464 -251.396957 
L 280.659591 -259.694533 
L 279.432718 -268.201967 
L 278.205845 -276.776426 
L 276.978972 -285.164878 
L 275.752099 -293.039476 
L 274.525226 -300.05088 
L 273.298353 -305.888108 
L 272.07148 -310.332771 
L 270.844607 -313.297562 
L 269.617734 -314.842775 
L 268.390861 -315.169292 
L 267.163988 -314.590745 
L 265.937115 -313.490618 
L 264.710242 -312.271594 
L 263.483369 -311.304496 
L 262.256496 -310.883303 
L 261.029623 -311.191213 
L 259.80275 -312.281192 
L 258.575877 -314.072861 
L 257.349004 -316.366087 
L 256.122131 -318.869942 
L 254.895258 -321.2439 
L 253.668385 -323.146273 
L 252.441512 -324.283322 
L 251.214639 -324.451685 
L 249.987766 -323.56723 
L 248.760893 -321.675355 
L 247.53402 -318.940864 
L 246.307147 -315.619443 
L 245.080274 -312.016299 
L 243.853401 -308.440059 
L 242.626528 -305.160628 
L 241.399655 -302.378396 
L 240.172782 -300.209121 
L 238.945909 -298.685006 
L 237.719036 -297.768825 
L 236.492163 -297.375514 
L 235.26529 -297.394896 
L 234.038417 -297.71024 
L 232.811544 -298.209673 
L 231.584671 -298.790219 
L 230.357798 -299.356539 
L 229.130925 -299.817709 
L 227.904052 -300.085246 
L 226.677179 -300.074427 
L 225.450306 -299.709196 
L 224.223433 -298.929342 
L 222.99656 -297.697707 
L 221.769687 -296.005109 
L 220.542813 -293.871426 
L 219.31594 -291.342478 
L 218.089067 -288.483467 
L 216.862194 -285.370498 
L 215.635321 -282.081891 
L 214.408448 -278.690662 
L 213.181575 -275.258985 
L 211.954702 -271.834839 
L 210.727829 -268.450659 
L 209.500956 -265.123669 
L 208.274083 -261.857589 
L 207.04721 -258.645548 
L 205.820337 -255.474012 
L 204.593464 -252.327462 
L 203.366591 -249.193326 
L 202.139718 -246.066499 
L 200.912845 -242.952663 
L 199.685972 -239.869737 
L 198.459099 -236.847062 
L 197.232226 -233.92236 
L 196.005353 -231.136909 
L 194.77848 -228.529767 
L 193.551607 -226.132006 
L 192.324734 -223.961936 
L 191.097861 -222.022025 
L 189.870988 -220.297965 
L 188.644115 -218.759909 
L 187.417242 -217.365604 
L 186.190369 -216.064882 
L 184.963496 -214.80484 
L 183.736623 -213.535006 
L 182.50975 -212.211883 
L 181.282877 -210.802383 
L 180.056004 -209.28591 
L 178.829131 -207.655008 
L 177.602258 -205.91471 
L 176.375385 -204.080832 
L 175.148512 -202.177494 
L 173.921639 -200.2342 
L 172.694766 -198.282687 
L 171.467893 -196.353807 
L 170.24102 -194.474621 
L 169.014147 -192.665941 
L 167.787274 -190.940583 
L 166.560401 -189.302581 
L 165.333528 -187.747549 
L 164.106655 -186.264222 
L 162.879782 -184.836952 
L 161.652909 -183.448721 
L 160.426036 -182.084059 
L 159.199163 -180.731269 
L 157.97229 -179.383608 
L 156.745417 -178.039403 
L 155.518544 -176.70154 
L 154.291671 -175.376919 
L 153.064798 -174.076403 
L 151.837925 -172.81524 
L 150.611052 -171.613224 
L 149.384179 -170.493241 
L 148.157306 -169.476766 
L 146.930433 -168.575661 
L 145.70356 -167.781221 
L 144.476687 -167.053365 
L 143.249814 -166.314472 
L 142.022941 -165.452631 
L 140.796068 -164.337555 
L 139.569195 -162.849126 
L 138.342322 -160.914307 
L 137.115449 -158.544249 
L 135.888576 -155.861261 
L 134.661703 -153.105873 
L 133.43483 -150.617648 
L 132.207957 -148.789103 
L 130.981084 -147.998573 
L 129.754211 -148.533671 
L 128.527338 -150.520454 
L 127.300465 -153.873786 
L 126.073592 -158.281272 
L 124.846719 -163.227064 
L 123.619846 -168.054048 
L 122.392973 -172.054842 
L 121.1661 -174.575684 
L 119.939227 -175.114055 
L 118.712354 -173.391786 
L 117.485481 -169.390449 
L 116.258608 -163.343713 
L 115.031735 -155.690368 
L 113.804862 -146.999444 
L 112.577989 -137.883469 
L 111.351116 -128.916576 
L 110.124243 -120.57094 
L 108.89737 -113.179374 
L 107.670497 -106.925375 
L 106.443624 -101.856405 
L 105.216751 -97.91273 
L 103.989878 -94.963105 
L 102.763005 -92.839709 
L 101.536132 -91.367061 
L 100.309259 -90.382378 
L 99.082386 -89.747212 
z
" id="m9f816e4a61" style="stroke:#4c72b0;stroke-width:3;"/>
    </defs>
    <g clip-path="url(#p06ad78ffa2)">
     <use style="fill:#4c72b0;fill-opacity:0.25;stroke:#4c72b0;stroke-width:3;" x="0" xlink:href="#m9f816e4a61" y="432"/>
    </g>
   </g>
   <g id="PolyCollection_2">
    <defs>
     <path d="M 107.703947 -91.812365 
L 107.703947 -88.813187 
L 108.844171 -88.813187 
L 109.984395 -88.813187 
L 111.124619 -88.813187 
L 112.264843 -88.813187 
L 113.405067 -88.813187 
L 114.545292 -88.813187 
L 115.685516 -88.813187 
L 116.82574 -88.813187 
L 117.965964 -88.813187 
L 119.106188 -88.813187 
L 120.246412 -88.813187 
L 121.386637 -88.813187 
L 122.526861 -88.813187 
L 123.667085 -88.813187 
L 124.807309 -88.813187 
L 125.947533 -88.813187 
L 127.087757 -88.813187 
L 128.227981 -88.813187 
L 129.368206 -88.813187 
L 130.50843 -88.813187 
L 131.648654 -88.813187 
L 132.788878 -88.813187 
L 133.929102 -88.813187 
L 135.069326 -88.813187 
L 136.209551 -88.813187 
L 137.349775 -88.813187 
L 138.489999 -88.813187 
L 139.630223 -88.813187 
L 140.770447 -88.813187 
L 141.910671 -88.813187 
L 143.050895 -88.813187 
L 144.19112 -88.813187 
L 145.331344 -88.813187 
L 146.471568 -88.813187 
L 147.611792 -88.813187 
L 148.752016 -88.813187 
L 149.89224 -88.813187 
L 151.032465 -88.813187 
L 152.172689 -88.813187 
L 153.312913 -88.813187 
L 154.453137 -88.813187 
L 155.593361 -88.813187 
L 156.733585 -88.813187 
L 157.873809 -88.813187 
L 159.014034 -88.813187 
L 160.154258 -88.813187 
L 161.294482 -88.813187 
L 162.434706 -88.813187 
L 163.57493 -88.813187 
L 164.715154 -88.813187 
L 165.855379 -88.813187 
L 166.995603 -88.813187 
L 168.135827 -88.813187 
L 169.276051 -88.813187 
L 170.416275 -88.813187 
L 171.556499 -88.813187 
L 172.696723 -88.813187 
L 173.836948 -88.813187 
L 174.977172 -88.813187 
L 176.117396 -88.813187 
L 177.25762 -88.813187 
L 178.397844 -88.813187 
L 179.538068 -88.813187 
L 180.678293 -88.813187 
L 181.818517 -88.813187 
L 182.958741 -88.813187 
L 184.098965 -88.813187 
L 185.239189 -88.813187 
L 186.379413 -88.813187 
L 187.519637 -88.813187 
L 188.659862 -88.813187 
L 189.800086 -88.813187 
L 190.94031 -88.813187 
L 192.080534 -88.813187 
L 193.220758 -88.813187 
L 194.360982 -88.813187 
L 195.501207 -88.813187 
L 196.641431 -88.813187 
L 197.781655 -88.813187 
L 198.921879 -88.813187 
L 200.062103 -88.813187 
L 201.202327 -88.813187 
L 202.342551 -88.813187 
L 203.482776 -88.813187 
L 204.623 -88.813187 
L 205.763224 -88.813187 
L 206.903448 -88.813187 
L 208.043672 -88.813187 
L 209.183896 -88.813187 
L 210.324121 -88.813187 
L 211.464345 -88.813187 
L 212.604569 -88.813187 
L 213.744793 -88.813187 
L 214.885017 -88.813187 
L 216.025241 -88.813187 
L 217.165465 -88.813187 
L 218.30569 -88.813187 
L 219.445914 -88.813187 
L 220.586138 -88.813187 
L 221.726362 -88.813187 
L 222.866586 -88.813187 
L 224.00681 -88.813187 
L 225.147035 -88.813187 
L 226.287259 -88.813187 
L 227.427483 -88.813187 
L 228.567707 -88.813187 
L 229.707931 -88.813187 
L 230.848155 -88.813187 
L 231.988379 -88.813187 
L 233.128604 -88.813187 
L 234.268828 -88.813187 
L 235.409052 -88.813187 
L 236.549276 -88.813187 
L 237.6895 -88.813187 
L 238.829724 -88.813187 
L 239.969949 -88.813187 
L 241.110173 -88.813187 
L 242.250397 -88.813187 
L 243.390621 -88.813187 
L 244.530845 -88.813187 
L 245.671069 -88.813187 
L 246.811293 -88.813187 
L 247.951518 -88.813187 
L 249.091742 -88.813187 
L 250.231966 -88.813187 
L 251.37219 -88.813187 
L 252.512414 -88.813187 
L 253.652638 -88.813187 
L 254.792863 -88.813187 
L 255.933087 -88.813187 
L 257.073311 -88.813187 
L 258.213535 -88.813187 
L 259.353759 -88.813187 
L 260.493983 -88.813187 
L 261.634207 -88.813187 
L 262.774432 -88.813187 
L 263.914656 -88.813187 
L 265.05488 -88.813187 
L 266.195104 -88.813187 
L 267.335328 -88.813187 
L 268.475552 -88.813187 
L 269.615777 -88.813187 
L 270.756001 -88.813187 
L 271.896225 -88.813187 
L 273.036449 -88.813187 
L 274.176673 -88.813187 
L 275.316897 -88.813187 
L 276.457121 -88.813187 
L 277.597346 -88.813187 
L 278.73757 -88.813187 
L 279.877794 -88.813187 
L 281.018018 -88.813187 
L 282.158242 -88.813187 
L 283.298466 -88.813187 
L 284.438691 -88.813187 
L 285.578915 -88.813187 
L 286.719139 -88.813187 
L 287.859363 -88.813187 
L 288.999587 -88.813187 
L 290.139811 -88.813187 
L 291.280035 -88.813187 
L 292.42026 -88.813187 
L 293.560484 -88.813187 
L 294.700708 -88.813187 
L 295.840932 -88.813187 
L 296.981156 -88.813187 
L 298.12138 -88.813187 
L 299.261605 -88.813187 
L 300.401829 -88.813187 
L 301.542053 -88.813187 
L 302.682277 -88.813187 
L 303.822501 -88.813187 
L 304.962725 -88.813187 
L 306.102949 -88.813187 
L 307.243174 -88.813187 
L 308.383398 -88.813187 
L 309.523622 -88.813187 
L 310.663846 -88.813187 
L 311.80407 -88.813187 
L 312.944294 -88.813187 
L 314.084519 -88.813187 
L 315.224743 -88.813187 
L 316.364967 -88.813187 
L 317.505191 -88.813187 
L 318.645415 -88.813187 
L 319.785639 -88.813187 
L 320.925863 -88.813187 
L 322.066088 -88.813187 
L 323.206312 -88.813187 
L 324.346536 -88.813187 
L 325.48676 -88.813187 
L 326.626984 -88.813187 
L 327.767208 -88.813187 
L 328.907433 -88.813187 
L 330.047657 -88.813187 
L 331.187881 -88.813187 
L 332.328105 -88.813187 
L 333.468329 -88.813187 
L 334.608553 -88.813187 
L 334.608553 -89.21403 
L 334.608553 -89.21403 
L 333.468329 -89.732948 
L 332.328105 -90.762181 
L 331.187881 -92.628442 
L 330.047657 -95.715878 
L 328.907433 -100.363407 
L 327.767208 -106.705336 
L 326.626984 -114.507492 
L 325.48676 -123.086413 
L 324.346536 -131.389413 
L 323.206312 -138.243461 
L 322.066088 -142.682804 
L 320.925863 -144.206885 
L 319.785639 -142.853126 
L 318.645415 -139.077939 
L 317.505191 -133.545163 
L 316.364967 -126.947241 
L 315.224743 -119.922664 
L 314.084519 -113.046473 
L 312.944294 -106.830187 
L 311.80407 -101.691206 
L 310.663846 -97.900233 
L 309.523622 -95.540743 
L 308.383398 -94.504343 
L 307.243174 -94.5223 
L 306.102949 -95.222055 
L 304.962725 -96.201672 
L 303.822501 -97.119813 
L 302.682277 -97.791202 
L 301.542053 -98.261493 
L 300.401829 -98.826882 
L 299.261605 -99.974916 
L 298.12138 -102.251396 
L 296.981156 -106.089622 
L 295.840932 -111.655972 
L 294.700708 -118.761737 
L 293.560484 -126.867937 
L 292.42026 -135.1799 
L 291.280035 -142.805999 
L 290.139811 -148.946634 
L 288.999587 -153.079461 
L 287.859363 -155.104059 
L 286.719139 -155.403368 
L 285.578915 -154.784634 
L 284.438691 -154.293138 
L 283.298466 -154.941756 
L 282.158242 -157.441854 
L 281.018018 -162.029538 
L 279.877794 -168.448815 
L 278.73757 -176.093112 
L 277.597346 -184.242576 
L 276.457121 -192.292125 
L 275.316897 -199.867381 
L 274.176673 -206.781924 
L 273.036449 -212.880366 
L 271.896225 -217.887465 
L 270.756001 -221.390029 
L 269.615777 -222.999181 
L 268.475552 -222.619504 
L 267.335328 -220.667722 
L 266.195104 -218.095847 
L 265.05488 -216.175218 
L 263.914656 -216.123578 
L 262.774432 -218.733116 
L 261.634207 -224.149453 
L 260.493983 -231.87683 
L 259.353759 -240.987229 
L 258.213535 -250.433979 
L 257.073311 -259.341561 
L 255.933087 -267.170208 
L 254.792863 -273.720714 
L 253.652638 -279.017191 
L 252.512414 -283.14935 
L 251.37219 -286.156765 
L 250.231966 -288.004383 
L 249.091742 -288.6502 
L 247.951518 -288.160044 
L 246.811293 -286.797171 
L 245.671069 -285.021615 
L 244.530845 -283.380217 
L 243.390621 -282.332225 
L 242.250397 -282.097336 
L 241.110173 -282.603096 
L 239.969949 -283.553129 
L 238.829724 -284.575274 
L 237.6895 -285.378346 
L 236.549276 -285.857732 
L 235.409052 -286.123909 
L 234.268828 -286.458775 
L 233.128604 -287.221754 
L 231.988379 -288.735366 
L 230.848155 -291.183882 
L 229.707931 -294.556032 
L 228.567707 -298.647668 
L 227.427483 -303.115601 
L 226.287259 -307.553942 
L 225.147035 -311.563385 
L 224.00681 -314.801254 
L 222.866586 -317.018669 
L 221.726362 -318.093378 
L 220.586138 -318.052864 
L 219.445914 -317.070261 
L 218.30569 -315.421802 
L 217.165465 -313.416087 
L 216.025241 -311.322888 
L 214.885017 -309.327139 
L 213.744793 -307.516117 
L 212.604569 -305.89146 
L 211.464345 -304.394095 
L 210.324121 -302.935251 
L 209.183896 -301.429141 
L 208.043672 -299.818643 
L 206.903448 -298.08203 
L 205.763224 -296.215763 
L 204.623 -294.204337 
L 203.482776 -292.000476 
L 202.342551 -289.534874 
L 201.202327 -286.754696 
L 200.062103 -283.66879 
L 198.921879 -280.371409 
L 197.781655 -277.029462 
L 196.641431 -273.839705 
L 195.501207 -270.976432 
L 194.360982 -268.549737 
L 193.220758 -266.584356 
L 192.080534 -265.019242 
L 190.94031 -263.724176 
L 189.800086 -262.530107 
L 188.659862 -261.2695 
L 187.519637 -259.819192 
L 186.379413 -258.133698 
L 185.239189 -256.256594 
L 184.098965 -254.304187 
L 182.958741 -252.426321 
L 181.818517 -250.75801 
L 180.678293 -249.378196 
L 179.538068 -248.288365 
L 178.397844 -247.416688 
L 177.25762 -246.645347 
L 176.117396 -245.850928 
L 174.977172 -244.942552 
L 173.836948 -243.883095 
L 172.696723 -242.687122 
L 171.556499 -241.401559 
L 170.416275 -240.083676 
L 169.276051 -238.789263 
L 168.135827 -237.572687 
L 166.995603 -236.488433 
L 165.855379 -235.581374 
L 164.715154 -234.864768 
L 163.57493 -234.302527 
L 162.434706 -233.816949 
L 161.294482 -233.322144 
L 160.154258 -232.751774 
L 159.014034 -232.047056 
L 157.873809 -231.119469 
L 156.733585 -229.860997 
L 155.593361 -228.259729 
L 154.453137 -226.56117 
L 153.312913 -225.292179 
L 152.172689 -224.993105 
L 151.032465 -225.732316 
L 149.89224 -226.744709 
L 148.752016 -226.581988 
L 147.611792 -223.87281 
L 146.471568 -218.335297 
L 145.331344 -211.403148 
L 144.19112 -205.955419 
L 143.050895 -205.124524 
L 141.910671 -210.701494 
L 140.770447 -221.938697 
L 139.630223 -235.409126 
L 138.489999 -246.08674 
L 137.349775 -249.209786 
L 136.209551 -242.089588 
L 135.069326 -225.057301 
L 133.929102 -201.199371 
L 132.788878 -175.158099 
L 131.648654 -151.694958 
L 130.50843 -134.696672 
L 129.368206 -126.902405 
L 128.227981 -130.128669 
L 127.087757 -145.47627 
L 125.947533 -173.079791 
L 124.807309 -211.354976 
L 123.667085 -256.190452 
L 122.526861 -300.810172 
L 121.386637 -336.856375 
L 120.246412 -356.610152 
L 119.106188 -355.513987 
L 117.965964 -333.799949 
L 116.82574 -296.375624 
L 115.685516 -251.008888 
L 114.545292 -205.712877 
L 113.405067 -166.522047 
L 112.264843 -136.457469 
L 111.124619 -115.755451 
L 109.984395 -102.865261 
L 108.844171 -95.572925 
L 107.703947 -91.812365 
z
" id="m5d3cb8c2ba" style="stroke:#dd8452;stroke-width:3;"/>
    </defs>
    <g clip-path="url(#p06ad78ffa2)">
     <use style="fill:#dd8452;fill-opacity:0.25;stroke:#dd8452;stroke-width:3;" x="0" xlink:href="#m5d3cb8c2ba" y="432"/>
    </g>
   </g>
   <g id="patch_3">
    <path d="M 86.875 343.186813 
L 86.875 62 
" style="fill:none;stroke:#262626;stroke-linecap:square;stroke-linejoin:miter;stroke-width:1.25;"/>
   </g>
   <g id="patch_4">
    <path d="M 86.875 343.186813 
L 355.4375 343.186813 
" style="fill:none;stroke:#262626;stroke-linecap:square;stroke-linejoin:miter;stroke-width:1.25;"/>
   </g>
   <g id="text_14">
    <!-- Actual network -->
    <g style="fill:#262626;" transform="translate(181.806562 56)scale(0.12 -0.12)">
     <defs>
      <path d="M 40.4375 6.390625 
Q 35.546875 2.25 31.03125 0.53125 
Q 26.515625 -1.171875 21.34375 -1.171875 
Q 12.796875 -1.171875 8.203125 3 
Q 3.609375 7.171875 3.609375 13.671875 
Q 3.609375 17.484375 5.34375 20.625 
Q 7.078125 23.78125 9.890625 25.6875 
Q 12.703125 27.59375 16.21875 28.5625 
Q 18.796875 29.25 24.03125 29.890625 
Q 34.671875 31.15625 39.703125 32.90625 
Q 39.75 34.71875 39.75 35.203125 
Q 39.75 40.578125 37.25 42.78125 
Q 33.890625 45.75 27.25 45.75 
Q 21.046875 45.75 18.09375 43.578125 
Q 15.140625 41.40625 13.71875 35.890625 
L 5.125 37.0625 
Q 6.296875 42.578125 8.984375 45.96875 
Q 11.671875 49.359375 16.75 51.1875 
Q 21.828125 53.03125 28.515625 53.03125 
Q 35.15625 53.03125 39.296875 51.46875 
Q 43.453125 49.90625 45.40625 47.53125 
Q 47.359375 45.171875 48.140625 41.546875 
Q 48.578125 39.3125 48.578125 33.453125 
L 48.578125 21.734375 
Q 48.578125 9.46875 49.140625 6.21875 
Q 49.703125 2.984375 51.375 0 
L 42.1875 0 
Q 40.828125 2.734375 40.4375 6.390625 
z
M 39.703125 26.03125 
Q 34.90625 24.078125 25.34375 22.703125 
Q 19.921875 21.921875 17.671875 20.9375 
Q 15.4375 19.96875 14.203125 18.09375 
Q 12.984375 16.21875 12.984375 13.921875 
Q 12.984375 10.40625 15.640625 8.0625 
Q 18.3125 5.71875 23.4375 5.71875 
Q 28.515625 5.71875 32.46875 7.9375 
Q 36.421875 10.15625 38.28125 14.015625 
Q 39.703125 17 39.703125 22.796875 
z
" id="ArialMT-97"/>
      <path d="M 16.15625 0 
L 0.296875 51.859375 
L 9.375 51.859375 
L 17.625 21.921875 
L 20.703125 10.796875 
Q 20.90625 11.625 23.390625 21.484375 
L 31.640625 51.859375 
L 40.671875 51.859375 
L 48.4375 21.78125 
L 51.03125 11.859375 
L 54 21.875 
L 62.890625 51.859375 
L 71.4375 51.859375 
L 55.21875 0 
L 46.09375 0 
L 37.84375 31.0625 
L 35.84375 39.890625 
L 25.34375 0 
z
" id="ArialMT-119"/>
      <path d="M 6.640625 0 
L 6.640625 71.578125 
L 15.4375 71.578125 
L 15.4375 30.765625 
L 36.234375 51.859375 
L 47.609375 51.859375 
L 27.78125 32.625 
L 49.609375 0 
L 38.765625 0 
L 21.625 26.515625 
L 15.4375 20.5625 
L 15.4375 0 
z
" id="ArialMT-107"/>
     </defs>
     <use xlink:href="#ArialMT-65"/>
     <use x="66.699219" xlink:href="#ArialMT-99"/>
     <use x="116.699219" xlink:href="#ArialMT-116"/>
     <use x="144.482422" xlink:href="#ArialMT-117"/>
     <use x="200.097656" xlink:href="#ArialMT-97"/>
     <use x="255.712891" xlink:href="#ArialMT-108"/>
     <use x="277.929688" xlink:href="#ArialMT-32"/>
     <use x="305.712891" xlink:href="#ArialMT-110"/>
     <use x="361.328125" xlink:href="#ArialMT-101"/>
     <use x="416.943359" xlink:href="#ArialMT-116"/>
     <use x="444.726562" xlink:href="#ArialMT-119"/>
     <use x="516.943359" xlink:href="#ArialMT-111"/>
     <use x="572.558594" xlink:href="#ArialMT-114"/>
     <use x="605.859375" xlink:href="#ArialMT-107"/>
    </g>
   </g>
   <g id="legend_1">
    <g id="patch_5">
     <path d="M 269.125312 102.048594 
L 347.7375 102.048594 
Q 349.9375 102.048594 349.9375 99.848594 
L 349.9375 69.7 
Q 349.9375 67.5 347.7375 67.5 
L 269.125312 67.5 
Q 266.925312 67.5 266.925312 69.7 
L 266.925312 99.848594 
Q 266.925312 102.048594 269.125312 102.048594 
z
" style="fill:#ffffff;opacity:0.8;stroke:#cccccc;stroke-linejoin:miter;"/>
    </g>
    <g id="patch_6">
     <path d="M 271.325312 79.773594 
L 293.325312 79.773594 
L 293.325312 72.073594 
L 271.325312 72.073594 
z
" style="fill:#4c72b0;fill-opacity:0.25;stroke:#4c72b0;stroke-linejoin:miter;stroke-width:3;"/>
    </g>
    <g id="text_15">
     <!-- Negative -->
     <g style="fill:#262626;" transform="translate(302.125312 79.773594)scale(0.11 -0.11)">
      <defs>
       <path d="M 7.625 0 
L 7.625 71.578125 
L 17.328125 71.578125 
L 54.9375 15.375 
L 54.9375 71.578125 
L 64.015625 71.578125 
L 64.015625 0 
L 54.296875 0 
L 16.703125 56.25 
L 16.703125 0 
z
" id="ArialMT-78"/>
      </defs>
      <use xlink:href="#ArialMT-78"/>
      <use x="72.216797" xlink:href="#ArialMT-101"/>
      <use x="127.832031" xlink:href="#ArialMT-103"/>
      <use x="183.447266" xlink:href="#ArialMT-97"/>
      <use x="239.0625" xlink:href="#ArialMT-116"/>
      <use x="266.845703" xlink:href="#ArialMT-105"/>
      <use x="289.0625" xlink:href="#ArialMT-118"/>
      <use x="339.0625" xlink:href="#ArialMT-101"/>
     </g>
    </g>
    <g id="patch_7">
     <path d="M 271.325312 95.462344 
L 293.325312 95.462344 
L 293.325312 87.762344 
L 271.325312 87.762344 
z
" style="fill:#dd8452;fill-opacity:0.25;stroke:#dd8452;stroke-linejoin:miter;stroke-width:3;"/>
    </g>
    <g id="text_16">
     <!-- Positive -->
     <g style="fill:#262626;" transform="translate(302.125312 95.462344)scale(0.11 -0.11)">
      <defs>
       <path d="M 7.71875 0 
L 7.71875 71.578125 
L 34.71875 71.578125 
Q 41.84375 71.578125 45.609375 70.90625 
Q 50.875 70.015625 54.4375 67.546875 
Q 58.015625 65.09375 60.1875 60.640625 
Q 62.359375 56.203125 62.359375 50.875 
Q 62.359375 41.75 56.546875 35.421875 
Q 50.734375 29.109375 35.546875 29.109375 
L 17.1875 29.109375 
L 17.1875 0 
z
M 17.1875 37.546875 
L 35.6875 37.546875 
Q 44.875 37.546875 48.734375 40.96875 
Q 52.59375 44.390625 52.59375 50.59375 
Q 52.59375 55.078125 50.3125 58.265625 
Q 48.046875 61.46875 44.34375 62.5 
Q 41.9375 63.140625 35.5 63.140625 
L 17.1875 63.140625 
z
" id="ArialMT-80"/>
      </defs>
      <use xlink:href="#ArialMT-80"/>
      <use x="66.699219" xlink:href="#ArialMT-111"/>
      <use x="122.314453" xlink:href="#ArialMT-115"/>
      <use x="172.314453" xlink:href="#ArialMT-105"/>
      <use x="194.53125" xlink:href="#ArialMT-116"/>
      <use x="222.314453" xlink:href="#ArialMT-105"/>
      <use x="244.53125" xlink:href="#ArialMT-118"/>
      <use x="294.53125" xlink:href="#ArialMT-101"/>
     </g>
    </g>
   </g>
  </g>
  <g id="axes_2">
   <g id="patch_8">
    <path d="M 403.4375 343.186813 
L 672 343.186813 
L 672 62 
L 403.4375 62 
z
" style="fill:#ffffff;"/>
   </g>
   <g id="matplotlib.axis_3">
    <g id="xtick_43">
     <g id="text_17">
      <!-- $\mathdefault{10^{-5}}$ -->
      <g style="fill:#262626;" transform="translate(415.354911 363.920563)scale(0.11 -0.11)">
       <use transform="translate(0 0.879688)" xlink:href="#ArialMT-49"/>
       <use transform="translate(55.615234 0.879688)" xlink:href="#ArialMT-48"/>
       <use transform="translate(112.972813 70.573438)scale(0.7)" xlink:href="#ArialMT-8722"/>
       <use transform="translate(153.851719 70.573438)scale(0.7)" xlink:href="#ArialMT-53"/>
      </g>
     </g>
    </g>
    <g id="xtick_44">
     <g id="text_18">
      <!-- $\mathdefault{10^{-4}}$ -->
      <g style="fill:#262626;" transform="translate(473.433491 363.920563)scale(0.11 -0.11)">
       <use transform="translate(0 0.201563)" xlink:href="#ArialMT-49"/>
       <use transform="translate(55.615234 0.201563)" xlink:href="#ArialMT-48"/>
       <use transform="translate(112.972813 69.895313)scale(0.7)" xlink:href="#ArialMT-8722"/>
       <use transform="translate(153.851719 69.895313)scale(0.7)" xlink:href="#ArialMT-52"/>
      </g>
     </g>
    </g>
    <g id="xtick_45">
     <g id="text_19">
      <!-- $\mathdefault{10^{-3}}$ -->
      <g style="fill:#262626;" transform="translate(531.51207 364.030563)scale(0.11 -0.11)">
       <use transform="translate(0 0.99375)" xlink:href="#ArialMT-49"/>
       <use transform="translate(55.615234 0.99375)" xlink:href="#ArialMT-48"/>
       <use transform="translate(112.972813 70.6875)scale(0.7)" xlink:href="#ArialMT-8722"/>
       <use transform="translate(153.851719 70.6875)scale(0.7)" xlink:href="#ArialMT-51"/>
      </g>
     </g>
    </g>
    <g id="xtick_46">
     <g id="text_20">
      <!-- $\mathdefault{10^{-2}}$ -->
      <g style="fill:#262626;" transform="translate(589.59065 364.030563)scale(0.11 -0.11)">
       <use transform="translate(0 0.99375)" xlink:href="#ArialMT-49"/>
       <use transform="translate(55.615234 0.99375)" xlink:href="#ArialMT-48"/>
       <use transform="translate(112.972813 70.6875)scale(0.7)" xlink:href="#ArialMT-8722"/>
       <use transform="translate(153.851719 70.6875)scale(0.7)" xlink:href="#ArialMT-50"/>
      </g>
     </g>
    </g>
    <g id="xtick_47">
     <g id="text_21">
      <!-- $\mathdefault{10^{-1}}$ -->
      <g style="fill:#262626;" transform="translate(647.66923 364.030563)scale(0.11 -0.11)">
       <use transform="translate(0 0.99375)" xlink:href="#ArialMT-49"/>
       <use transform="translate(55.615234 0.99375)" xlink:href="#ArialMT-48"/>
       <use transform="translate(112.972813 70.6875)scale(0.7)" xlink:href="#ArialMT-8722"/>
       <use transform="translate(153.851719 70.6875)scale(0.7)" xlink:href="#ArialMT-49"/>
      </g>
     </g>
    </g>
    <g id="xtick_48"/>
    <g id="xtick_49"/>
    <g id="xtick_50"/>
    <g id="xtick_51"/>
    <g id="xtick_52"/>
    <g id="xtick_53"/>
    <g id="xtick_54"/>
    <g id="xtick_55"/>
    <g id="xtick_56"/>
    <g id="xtick_57"/>
    <g id="xtick_58"/>
    <g id="xtick_59"/>
    <g id="xtick_60"/>
    <g id="xtick_61"/>
    <g id="xtick_62"/>
    <g id="xtick_63"/>
    <g id="xtick_64"/>
    <g id="xtick_65"/>
    <g id="xtick_66"/>
    <g id="xtick_67"/>
    <g id="xtick_68"/>
    <g id="xtick_69"/>
    <g id="xtick_70"/>
    <g id="xtick_71"/>
    <g id="xtick_72"/>
    <g id="xtick_73"/>
    <g id="xtick_74"/>
    <g id="xtick_75"/>
    <g id="xtick_76"/>
    <g id="xtick_77"/>
    <g id="xtick_78"/>
    <g id="xtick_79"/>
    <g id="xtick_80"/>
    <g id="xtick_81"/>
    <g id="xtick_82"/>
    <g id="xtick_83"/>
    <g id="xtick_84"/>
    <g id="text_22">
     <!-- Activity of the source subreddit (log) -->
     <g style="fill:#262626;" transform="translate(442.34875 378.952438)scale(0.12 -0.12)">
      <use xlink:href="#ArialMT-65"/>
      <use x="66.699219" xlink:href="#ArialMT-99"/>
      <use x="116.699219" xlink:href="#ArialMT-116"/>
      <use x="144.482422" xlink:href="#ArialMT-105"/>
      <use x="166.699219" xlink:href="#ArialMT-118"/>
      <use x="216.699219" xlink:href="#ArialMT-105"/>
      <use x="238.916016" xlink:href="#ArialMT-116"/>
      <use x="266.699219" xlink:href="#ArialMT-121"/>
      <use x="316.699219" xlink:href="#ArialMT-32"/>
      <use x="344.482422" xlink:href="#ArialMT-111"/>
      <use x="400.097656" xlink:href="#ArialMT-102"/>
      <use x="427.880859" xlink:href="#ArialMT-32"/>
      <use x="455.664062" xlink:href="#ArialMT-116"/>
      <use x="483.447266" xlink:href="#ArialMT-104"/>
      <use x="539.0625" xlink:href="#ArialMT-101"/>
      <use x="594.677734" xlink:href="#ArialMT-32"/>
      <use x="622.460938" xlink:href="#ArialMT-115"/>
      <use x="672.460938" xlink:href="#ArialMT-111"/>
      <use x="728.076172" xlink:href="#ArialMT-117"/>
      <use x="783.691406" xlink:href="#ArialMT-114"/>
      <use x="816.992188" xlink:href="#ArialMT-99"/>
      <use x="866.992188" xlink:href="#ArialMT-101"/>
      <use x="922.607422" xlink:href="#ArialMT-32"/>
      <use x="950.390625" xlink:href="#ArialMT-115"/>
      <use x="1000.390625" xlink:href="#ArialMT-117"/>
      <use x="1056.005859" xlink:href="#ArialMT-98"/>
      <use x="1111.621094" xlink:href="#ArialMT-114"/>
      <use x="1144.921875" xlink:href="#ArialMT-101"/>
      <use x="1200.537109" xlink:href="#ArialMT-100"/>
      <use x="1256.152344" xlink:href="#ArialMT-100"/>
      <use x="1311.767578" xlink:href="#ArialMT-105"/>
      <use x="1333.984375" xlink:href="#ArialMT-116"/>
      <use x="1361.767578" xlink:href="#ArialMT-32"/>
      <use x="1389.550781" xlink:href="#ArialMT-40"/>
      <use x="1422.851562" xlink:href="#ArialMT-108"/>
      <use x="1445.068359" xlink:href="#ArialMT-111"/>
      <use x="1500.683594" xlink:href="#ArialMT-103"/>
      <use x="1556.298828" xlink:href="#ArialMT-41"/>
     </g>
    </g>
   </g>
   <g id="matplotlib.axis_4">
    <g id="ytick_7"/>
    <g id="ytick_8"/>
    <g id="ytick_9"/>
    <g id="ytick_10"/>
    <g id="ytick_11"/>
    <g id="ytick_12"/>
   </g>
   <g id="PolyCollection_3">
    <defs>
     <path d="M 415.969092 -90.564675 
L 415.969092 -88.813187 
L 417.192707 -88.813187 
L 418.416322 -88.813187 
L 419.639936 -88.813187 
L 420.863551 -88.813187 
L 422.087166 -88.813187 
L 423.31078 -88.813187 
L 424.534395 -88.813187 
L 425.75801 -88.813187 
L 426.981624 -88.813187 
L 428.205239 -88.813187 
L 429.428853 -88.813187 
L 430.652468 -88.813187 
L 431.876083 -88.813187 
L 433.099697 -88.813187 
L 434.323312 -88.813187 
L 435.546927 -88.813187 
L 436.770541 -88.813187 
L 437.994156 -88.813187 
L 439.217771 -88.813187 
L 440.441385 -88.813187 
L 441.665 -88.813187 
L 442.888615 -88.813187 
L 444.112229 -88.813187 
L 445.335844 -88.813187 
L 446.559459 -88.813187 
L 447.783073 -88.813187 
L 449.006688 -88.813187 
L 450.230303 -88.813187 
L 451.453917 -88.813187 
L 452.677532 -88.813187 
L 453.901146 -88.813187 
L 455.124761 -88.813187 
L 456.348376 -88.813187 
L 457.57199 -88.813187 
L 458.795605 -88.813187 
L 460.01922 -88.813187 
L 461.242834 -88.813187 
L 462.466449 -88.813187 
L 463.690064 -88.813187 
L 464.913678 -88.813187 
L 466.137293 -88.813187 
L 467.360908 -88.813187 
L 468.584522 -88.813187 
L 469.808137 -88.813187 
L 471.031752 -88.813187 
L 472.255366 -88.813187 
L 473.478981 -88.813187 
L 474.702596 -88.813187 
L 475.92621 -88.813187 
L 477.149825 -88.813187 
L 478.373439 -88.813187 
L 479.597054 -88.813187 
L 480.820669 -88.813187 
L 482.044283 -88.813187 
L 483.267898 -88.813187 
L 484.491513 -88.813187 
L 485.715127 -88.813187 
L 486.938742 -88.813187 
L 488.162357 -88.813187 
L 489.385971 -88.813187 
L 490.609586 -88.813187 
L 491.833201 -88.813187 
L 493.056815 -88.813187 
L 494.28043 -88.813187 
L 495.504045 -88.813187 
L 496.727659 -88.813187 
L 497.951274 -88.813187 
L 499.174889 -88.813187 
L 500.398503 -88.813187 
L 501.622118 -88.813187 
L 502.845732 -88.813187 
L 504.069347 -88.813187 
L 505.292962 -88.813187 
L 506.516576 -88.813187 
L 507.740191 -88.813187 
L 508.963806 -88.813187 
L 510.18742 -88.813187 
L 511.411035 -88.813187 
L 512.63465 -88.813187 
L 513.858264 -88.813187 
L 515.081879 -88.813187 
L 516.305494 -88.813187 
L 517.529108 -88.813187 
L 518.752723 -88.813187 
L 519.976338 -88.813187 
L 521.199952 -88.813187 
L 522.423567 -88.813187 
L 523.647182 -88.813187 
L 524.870796 -88.813187 
L 526.094411 -88.813187 
L 527.318025 -88.813187 
L 528.54164 -88.813187 
L 529.765255 -88.813187 
L 530.988869 -88.813187 
L 532.212484 -88.813187 
L 533.436099 -88.813187 
L 534.659713 -88.813187 
L 535.883328 -88.813187 
L 537.106943 -88.813187 
L 538.330557 -88.813187 
L 539.554172 -88.813187 
L 540.777787 -88.813187 
L 542.001401 -88.813187 
L 543.225016 -88.813187 
L 544.448631 -88.813187 
L 545.672245 -88.813187 
L 546.89586 -88.813187 
L 548.119475 -88.813187 
L 549.343089 -88.813187 
L 550.566704 -88.813187 
L 551.790318 -88.813187 
L 553.013933 -88.813187 
L 554.237548 -88.813187 
L 555.461162 -88.813187 
L 556.684777 -88.813187 
L 557.908392 -88.813187 
L 559.132006 -88.813187 
L 560.355621 -88.813187 
L 561.579236 -88.813187 
L 562.80285 -88.813187 
L 564.026465 -88.813187 
L 565.25008 -88.813187 
L 566.473694 -88.813187 
L 567.697309 -88.813187 
L 568.920924 -88.813187 
L 570.144538 -88.813187 
L 571.368153 -88.813187 
L 572.591768 -88.813187 
L 573.815382 -88.813187 
L 575.038997 -88.813187 
L 576.262611 -88.813187 
L 577.486226 -88.813187 
L 578.709841 -88.813187 
L 579.933455 -88.813187 
L 581.15707 -88.813187 
L 582.380685 -88.813187 
L 583.604299 -88.813187 
L 584.827914 -88.813187 
L 586.051529 -88.813187 
L 587.275143 -88.813187 
L 588.498758 -88.813187 
L 589.722373 -88.813187 
L 590.945987 -88.813187 
L 592.169602 -88.813187 
L 593.393217 -88.813187 
L 594.616831 -88.813187 
L 595.840446 -88.813187 
L 597.064061 -88.813187 
L 598.287675 -88.813187 
L 599.51129 -88.813187 
L 600.734904 -88.813187 
L 601.958519 -88.813187 
L 603.182134 -88.813187 
L 604.405748 -88.813187 
L 605.629363 -88.813187 
L 606.852978 -88.813187 
L 608.076592 -88.813187 
L 609.300207 -88.813187 
L 610.523822 -88.813187 
L 611.747436 -88.813187 
L 612.971051 -88.813187 
L 614.194666 -88.813187 
L 615.41828 -88.813187 
L 616.641895 -88.813187 
L 617.86551 -88.813187 
L 619.089124 -88.813187 
L 620.312739 -88.813187 
L 621.536354 -88.813187 
L 622.759968 -88.813187 
L 623.983583 -88.813187 
L 625.207197 -88.813187 
L 626.430812 -88.813187 
L 627.654427 -88.813187 
L 628.878041 -88.813187 
L 630.101656 -88.813187 
L 631.325271 -88.813187 
L 632.548885 -88.813187 
L 633.7725 -88.813187 
L 634.996115 -88.813187 
L 636.219729 -88.813187 
L 637.443344 -88.813187 
L 638.666959 -88.813187 
L 639.890573 -88.813187 
L 641.114188 -88.813187 
L 642.337803 -88.813187 
L 643.561417 -88.813187 
L 644.785032 -88.813187 
L 646.008647 -88.813187 
L 647.232261 -88.813187 
L 648.455876 -88.813187 
L 649.67949 -88.813187 
L 650.903105 -88.813187 
L 652.12672 -88.813187 
L 653.350334 -88.813187 
L 654.573949 -88.813187 
L 655.797564 -88.813187 
L 657.021178 -88.813187 
L 658.244793 -88.813187 
L 659.468408 -88.813187 
L 659.468408 -89.136735 
L 659.468408 -89.136735 
L 658.244793 -89.3665 
L 657.021178 -89.72963 
L 655.797564 -90.283382 
L 654.573949 -91.09783 
L 653.350334 -92.252554 
L 652.12672 -93.82973 
L 650.903105 -95.903278 
L 649.67949 -98.524606 
L 648.455876 -101.706584 
L 647.232261 -105.408468 
L 646.008647 -109.525223 
L 644.785032 -113.884735 
L 643.561417 -118.255475 
L 642.337803 -122.365397 
L 641.114188 -125.930481 
L 639.890573 -128.68898 
L 638.666959 -130.435732 
L 637.443344 -131.050434 
L 636.219729 -130.514643 
L 634.996115 -128.914411 
L 633.7725 -126.42825 
L 632.548885 -123.302889 
L 631.325271 -119.82141 
L 630.101656 -116.269379 
L 628.878041 -112.904485 
L 627.654427 -109.934072 
L 626.430812 -107.503151 
L 625.207197 -105.693497 
L 623.983583 -104.532425 
L 622.759968 -104.008323 
L 621.536354 -104.08897 
L 620.312739 -104.738457 
L 619.089124 -105.929067 
L 617.86551 -107.645763 
L 616.641895 -109.882821 
L 615.41828 -112.634149 
L 614.194666 -115.880568 
L 612.971051 -119.578286 
L 611.747436 -123.652649 
L 610.523822 -128.000013 
L 609.300207 -132.498457 
L 608.076592 -137.025589 
L 606.852978 -141.479631 
L 605.629363 -145.798718 
L 604.405748 -149.973497 
L 603.182134 -154.049455 
L 601.958519 -158.117739 
L 600.734904 -162.295896 
L 599.51129 -166.70228 
L 598.287675 -171.429243 
L 597.064061 -176.520517 
L 595.840446 -181.957171 
L 594.616831 -187.654836 
L 593.393217 -193.472707 
L 592.169602 -199.232824 
L 590.945987 -204.746466 
L 589.722373 -209.843489 
L 588.498758 -214.399937 
L 587.275143 -218.359484 
L 586.051529 -221.745 
L 584.827914 -224.657921 
L 583.604299 -227.26499 
L 582.380685 -229.774061 
L 581.15707 -232.402739 
L 579.933455 -235.345058 
L 578.709841 -238.74191 
L 577.486226 -242.660194 
L 576.262611 -247.083937 
L 575.038997 -251.918305 
L 573.815382 -257.005022 
L 572.591768 -262.145904 
L 571.368153 -267.130204 
L 570.144538 -271.761392 
L 568.920924 -275.879663 
L 567.697309 -279.377553 
L 566.473694 -282.207321 
L 565.25008 -284.380005 
L 564.026465 -285.957203 
L 562.80285 -287.037546 
L 561.579236 -287.740487 
L 560.355621 -288.190297 
L 559.132006 -288.502804 
L 557.908392 -288.776664 
L 556.684777 -289.08967 
L 555.461162 -289.499355 
L 554.237548 -290.046124 
L 553.013933 -290.756782 
L 551.790318 -291.646627 
L 550.566704 -292.719274 
L 549.343089 -293.96451 
L 548.119475 -295.355526 
L 546.89586 -296.847305 
L 545.672245 -298.377732 
L 544.448631 -299.872142 
L 543.225016 -301.250922 
L 542.001401 -302.438779 
L 540.777787 -303.373734 
L 539.554172 -304.01391 
L 538.330557 -304.340764 
L 537.106943 -304.358329 
L 535.883328 -304.088906 
L 534.659713 -303.566431 
L 533.436099 -302.829016 
L 532.212484 -301.912158 
L 530.988869 -300.843727 
L 529.765255 -299.641333 
L 528.54164 -298.312131 
L 527.318025 -296.854675 
L 526.094411 -295.262202 
L 524.870796 -293.526587 
L 523.647182 -291.642297 
L 522.423567 -289.6098 
L 521.199952 -287.438012 
L 519.976338 -285.145537 
L 518.752723 -282.760514 
L 517.529108 -280.318998 
L 516.305494 -277.861888 
L 515.081879 -275.430647 
L 513.858264 -273.062288 
L 512.63465 -270.784379 
L 511.411035 -268.611061 
L 510.18742 -266.541049 
L 508.963806 -264.558331 
L 507.740191 -262.635787 
L 506.516576 -260.74122 
L 505.292962 -258.844639 
L 504.069347 -256.92522 
L 502.845732 -254.976292 
L 501.622118 -253.007151 
L 500.398503 -251.041255 
L 499.174889 -249.111282 
L 497.951274 -247.252318 
L 496.727659 -245.494901 
L 495.504045 -243.859568 
L 494.28043 -242.354074 
L 493.056815 -240.973666 
L 491.833201 -239.703947 
L 490.609586 -238.525294 
L 489.385971 -237.417487 
L 488.162357 -236.363401 
L 486.938742 -235.351015 
L 485.715127 -234.373614 
L 484.491513 -233.428546 
L 483.267898 -232.515269 
L 482.044283 -231.633443 
L 480.820669 -230.78166 
L 479.597054 -229.957048 
L 478.373439 -229.1556 
L 477.149825 -228.372806 
L 475.92621 -227.604123 
L 474.702596 -226.845052 
L 473.478981 -226.090985 
L 472.255366 -225.33749 
L 471.031752 -224.581824 
L 469.808137 -223.826145 
L 468.584522 -223.081935 
L 467.360908 -222.373738 
L 466.137293 -221.739202 
L 464.913678 -221.22221 
L 463.690064 -220.8573 
L 462.466449 -220.646765 
L 461.242834 -220.53585 
L 460.01922 -220.395068 
L 458.795605 -220.019844 
L 457.57199 -219.155328 
L 456.348376 -217.54809 
L 455.124761 -215.017927 
L 453.901146 -211.534667 
L 452.677532 -207.279565 
L 451.453917 -202.670834 
L 450.230303 -198.338663 
L 449.006688 -195.045718 
L 447.783073 -193.562009 
L 446.559459 -194.514973 
L 445.335844 -198.243703 
L 444.112229 -204.688382 
L 442.888615 -213.341411 
L 441.665 -223.276009 
L 440.441385 -233.253164 
L 439.217771 -241.891611 
L 437.994156 -247.871571 
L 436.770541 -250.134667 
L 435.546927 -248.042149 
L 434.323312 -241.461842 
L 433.099697 -230.769343 
L 431.876083 -216.767285 
L 430.652468 -200.543215 
L 429.428853 -183.297681 
L 428.205239 -166.176917 
L 426.981624 -150.139195 
L 425.75801 -135.872694 
L 424.534395 -123.769323 
L 423.31078 -113.947036 
L 422.087166 -106.305428 
L 420.863551 -100.596769 
L 419.639936 -96.496547 
L 418.416322 -93.662329 
L 417.192707 -91.775406 
L 415.969092 -90.564675 
z
" id="m1636c735a3" style="stroke:#4c72b0;stroke-width:3;"/>
    </defs>
    <g clip-path="url(#p9c3e5b4f52)">
     <use style="fill:#4c72b0;fill-opacity:0.25;stroke:#4c72b0;stroke-width:3;" x="0" xlink:href="#m1636c735a3" y="432"/>
    </g>
   </g>
   <g id="PolyCollection_4">
    <defs>
     <path d="M 424.166844 -91.683067 
L 424.166844 -88.813187 
L 425.308069 -88.813187 
L 426.449294 -88.813187 
L 427.590519 -88.813187 
L 428.731745 -88.813187 
L 429.87297 -88.813187 
L 431.014195 -88.813187 
L 432.15542 -88.813187 
L 433.296645 -88.813187 
L 434.43787 -88.813187 
L 435.579096 -88.813187 
L 436.720321 -88.813187 
L 437.861546 -88.813187 
L 439.002771 -88.813187 
L 440.143996 -88.813187 
L 441.285222 -88.813187 
L 442.426447 -88.813187 
L 443.567672 -88.813187 
L 444.708897 -88.813187 
L 445.850122 -88.813187 
L 446.991348 -88.813187 
L 448.132573 -88.813187 
L 449.273798 -88.813187 
L 450.415023 -88.813187 
L 451.556248 -88.813187 
L 452.697473 -88.813187 
L 453.838699 -88.813187 
L 454.979924 -88.813187 
L 456.121149 -88.813187 
L 457.262374 -88.813187 
L 458.403599 -88.813187 
L 459.544825 -88.813187 
L 460.68605 -88.813187 
L 461.827275 -88.813187 
L 462.9685 -88.813187 
L 464.109725 -88.813187 
L 465.250951 -88.813187 
L 466.392176 -88.813187 
L 467.533401 -88.813187 
L 468.674626 -88.813187 
L 469.815851 -88.813187 
L 470.957076 -88.813187 
L 472.098302 -88.813187 
L 473.239527 -88.813187 
L 474.380752 -88.813187 
L 475.521977 -88.813187 
L 476.663202 -88.813187 
L 477.804428 -88.813187 
L 478.945653 -88.813187 
L 480.086878 -88.813187 
L 481.228103 -88.813187 
L 482.369328 -88.813187 
L 483.510554 -88.813187 
L 484.651779 -88.813187 
L 485.793004 -88.813187 
L 486.934229 -88.813187 
L 488.075454 -88.813187 
L 489.21668 -88.813187 
L 490.357905 -88.813187 
L 491.49913 -88.813187 
L 492.640355 -88.813187 
L 493.78158 -88.813187 
L 494.922805 -88.813187 
L 496.064031 -88.813187 
L 497.205256 -88.813187 
L 498.346481 -88.813187 
L 499.487706 -88.813187 
L 500.628931 -88.813187 
L 501.770157 -88.813187 
L 502.911382 -88.813187 
L 504.052607 -88.813187 
L 505.193832 -88.813187 
L 506.335057 -88.813187 
L 507.476283 -88.813187 
L 508.617508 -88.813187 
L 509.758733 -88.813187 
L 510.899958 -88.813187 
L 512.041183 -88.813187 
L 513.182408 -88.813187 
L 514.323634 -88.813187 
L 515.464859 -88.813187 
L 516.606084 -88.813187 
L 517.747309 -88.813187 
L 518.888534 -88.813187 
L 520.02976 -88.813187 
L 521.170985 -88.813187 
L 522.31221 -88.813187 
L 523.453435 -88.813187 
L 524.59466 -88.813187 
L 525.735886 -88.813187 
L 526.877111 -88.813187 
L 528.018336 -88.813187 
L 529.159561 -88.813187 
L 530.300786 -88.813187 
L 531.442011 -88.813187 
L 532.583237 -88.813187 
L 533.724462 -88.813187 
L 534.865687 -88.813187 
L 536.006912 -88.813187 
L 537.148137 -88.813187 
L 538.289363 -88.813187 
L 539.430588 -88.813187 
L 540.571813 -88.813187 
L 541.713038 -88.813187 
L 542.854263 -88.813187 
L 543.995489 -88.813187 
L 545.136714 -88.813187 
L 546.277939 -88.813187 
L 547.419164 -88.813187 
L 548.560389 -88.813187 
L 549.701614 -88.813187 
L 550.84284 -88.813187 
L 551.984065 -88.813187 
L 553.12529 -88.813187 
L 554.266515 -88.813187 
L 555.40774 -88.813187 
L 556.548966 -88.813187 
L 557.690191 -88.813187 
L 558.831416 -88.813187 
L 559.972641 -88.813187 
L 561.113866 -88.813187 
L 562.255092 -88.813187 
L 563.396317 -88.813187 
L 564.537542 -88.813187 
L 565.678767 -88.813187 
L 566.819992 -88.813187 
L 567.961217 -88.813187 
L 569.102443 -88.813187 
L 570.243668 -88.813187 
L 571.384893 -88.813187 
L 572.526118 -88.813187 
L 573.667343 -88.813187 
L 574.808569 -88.813187 
L 575.949794 -88.813187 
L 577.091019 -88.813187 
L 578.232244 -88.813187 
L 579.373469 -88.813187 
L 580.514695 -88.813187 
L 581.65592 -88.813187 
L 582.797145 -88.813187 
L 583.93837 -88.813187 
L 585.079595 -88.813187 
L 586.22082 -88.813187 
L 587.362046 -88.813187 
L 588.503271 -88.813187 
L 589.644496 -88.813187 
L 590.785721 -88.813187 
L 591.926946 -88.813187 
L 593.068172 -88.813187 
L 594.209397 -88.813187 
L 595.350622 -88.813187 
L 596.491847 -88.813187 
L 597.633072 -88.813187 
L 598.774298 -88.813187 
L 599.915523 -88.813187 
L 601.056748 -88.813187 
L 602.197973 -88.813187 
L 603.339198 -88.813187 
L 604.480424 -88.813187 
L 605.621649 -88.813187 
L 606.762874 -88.813187 
L 607.904099 -88.813187 
L 609.045324 -88.813187 
L 610.186549 -88.813187 
L 611.327775 -88.813187 
L 612.469 -88.813187 
L 613.610225 -88.813187 
L 614.75145 -88.813187 
L 615.892675 -88.813187 
L 617.033901 -88.813187 
L 618.175126 -88.813187 
L 619.316351 -88.813187 
L 620.457576 -88.813187 
L 621.598801 -88.813187 
L 622.740027 -88.813187 
L 623.881252 -88.813187 
L 625.022477 -88.813187 
L 626.163702 -88.813187 
L 627.304927 -88.813187 
L 628.446152 -88.813187 
L 629.587378 -88.813187 
L 630.728603 -88.813187 
L 631.869828 -88.813187 
L 633.011053 -88.813187 
L 634.152278 -88.813187 
L 635.293504 -88.813187 
L 636.434729 -88.813187 
L 637.575954 -88.813187 
L 638.717179 -88.813187 
L 639.858404 -88.813187 
L 640.99963 -88.813187 
L 642.140855 -88.813187 
L 643.28208 -88.813187 
L 644.423305 -88.813187 
L 645.56453 -88.813187 
L 646.705755 -88.813187 
L 647.846981 -88.813187 
L 648.988206 -88.813187 
L 650.129431 -88.813187 
L 651.270656 -88.813187 
L 651.270656 -89.270341 
L 651.270656 -89.270341 
L 650.129431 -89.85847 
L 648.988206 -91.022776 
L 647.846981 -93.132425 
L 646.705755 -96.623725 
L 645.56453 -101.885817 
L 644.423305 -109.079824 
L 643.28208 -117.947384 
L 642.140855 -127.706938 
L 640.99963 -137.131334 
L 639.858404 -144.8274 
L 638.717179 -149.626329 
L 637.575954 -150.915591 
L 636.434729 -148.762707 
L 635.293504 -143.795201 
L 634.152278 -136.931691 
L 633.011053 -129.115703 
L 631.869828 -121.157986 
L 630.728603 -113.696837 
L 629.587378 -107.217801 
L 628.446152 -102.071145 
L 627.304927 -98.464444 
L 626.163702 -96.442555 
L 625.022477 -95.875545 
L 623.881252 -96.466871 
L 622.740027 -97.788459 
L 621.598801 -99.349921 
L 620.457576 -100.704359 
L 619.316351 -101.574658 
L 618.175126 -101.960329 
L 617.033901 -102.175658 
L 615.892675 -102.788075 
L 614.75145 -104.464699 
L 613.610225 -107.773598 
L 612.469 -113.003845 
L 611.327775 -120.058261 
L 610.186549 -128.444081 
L 609.045324 -137.356652 
L 607.904099 -145.833237 
L 606.762874 -152.949156 
L 605.621649 -158.026294 
L 604.480424 -160.814042 
L 603.339198 -161.58951 
L 602.197973 -161.126655 
L 601.056748 -160.518319 
L 599.915523 -160.892275 
L 598.774298 -163.111726 
L 597.633072 -167.562594 
L 596.491847 -174.097678 
L 595.350622 -182.147094 
L 594.209397 -190.940586 
L 593.068172 -199.744353 
L 591.926946 -208.012364 
L 590.785721 -215.398167 
L 589.644496 -221.652597 
L 588.503271 -226.503866 
L 587.362046 -229.630907 
L 586.22082 -230.780373 
L 585.079595 -229.975438 
L 583.93837 -227.688272 
L 582.797145 -224.851526 
L 581.65592 -222.666758 
L 580.514695 -222.276011 
L 579.373469 -224.431925 
L 578.232244 -229.298933 
L 577.091019 -236.454477 
L 575.949794 -245.072385 
L 574.808569 -254.199989 
L 573.667343 -263.013797 
L 572.526118 -270.963602 
L 571.384893 -277.776943 
L 570.243668 -283.361721 
L 569.102443 -287.682079 
L 567.961217 -290.678759 
L 566.819992 -292.270783 
L 565.678767 -292.430627 
L 564.537542 -291.287021 
L 563.396317 -289.190793 
L 562.255092 -286.690467 
L 561.113866 -284.407144 
L 559.972641 -282.854483 
L 558.831416 -282.28554 
L 557.690191 -282.638183 
L 556.548966 -283.600205 
L 555.40774 -284.757319 
L 554.266515 -285.756832 
L 553.12529 -286.427125 
L 551.984065 -286.822543 
L 550.84284 -287.192714 
L 549.701614 -287.894211 
L 548.560389 -289.273193 
L 547.419164 -291.553892 
L 546.277939 -294.766668 
L 545.136714 -298.735772 
L 543.995489 -303.123329 
L 542.854263 -307.505365 
L 541.713038 -311.451061 
L 540.571813 -314.588533 
L 539.430588 -316.655556 
L 538.289363 -317.537045 
L 537.148137 -317.282393 
L 536.006912 -316.089329 
L 534.865687 -314.249696 
L 533.724462 -312.072797 
L 532.583237 -309.815943 
L 531.442011 -307.646439 
L 530.300786 -305.63916 
L 529.159561 -303.79659 
L 528.018336 -302.075474 
L 526.877111 -300.412131 
L 525.735886 -298.744655 
L 524.59466 -297.028558 
L 523.453435 -295.238837 
L 522.31221 -293.35545 
L 521.170985 -291.341226 
L 520.02976 -289.130964 
L 518.888534 -286.646557 
L 517.747309 -283.835515 
L 516.606084 -280.712099 
L 515.464859 -277.375884 
L 514.323634 -273.995468 
L 513.182408 -270.764853 
L 512.041183 -267.852668 
L 510.899958 -265.36344 
L 509.758733 -263.320098 
L 508.617508 -261.666986 
L 507.476283 -260.288377 
L 506.335057 -259.0376 
L 505.193832 -257.772116 
L 504.052607 -256.387882 
L 502.911382 -254.843923 
L 501.770157 -253.168761 
L 500.628931 -251.445788 
L 499.487706 -249.782399 
L 498.346481 -248.273524 
L 497.205256 -246.971384 
L 496.064031 -245.870474 
L 494.922805 -244.911747 
L 493.78158 -244.004146 
L 492.640355 -243.055612 
L 491.49913 -242.001605 
L 490.357905 -240.819934 
L 489.21668 -239.527729 
L 488.075454 -238.166228 
L 486.934229 -236.785157 
L 485.793004 -235.435833 
L 484.651779 -234.172297 
L 483.510554 -233.050434 
L 482.369328 -232.115001 
L 481.228103 -231.37644 
L 480.086878 -230.794476 
L 478.945653 -230.287233 
L 477.804428 -229.763701 
L 476.663202 -229.149862 
L 475.521977 -228.379903 
L 474.380752 -227.36891 
L 473.239527 -226.031396 
L 472.098302 -224.389095 
L 470.957076 -222.704397 
L 469.815851 -221.475081 
L 468.674626 -221.167322 
L 467.533401 -221.776043 
L 466.392176 -222.530623 
L 465.250951 -222.082295 
L 464.109725 -219.231164 
L 462.9685 -213.842134 
L 461.827275 -207.365687 
L 460.68605 -202.521087 
L 459.544825 -202.15311 
L 458.403599 -207.764568 
L 457.262374 -218.46407 
L 456.121149 -230.914742 
L 454.979924 -240.399099 
L 453.838699 -242.563671 
L 452.697473 -235.061804 
L 451.556248 -218.369752 
L 450.415023 -195.489322 
L 449.273798 -170.818794 
L 448.132573 -148.837544 
L 446.991348 -133.210696 
L 445.850122 -126.543007 
L 444.708897 -130.559589 
L 443.567672 -146.243578 
L 442.426447 -173.553726 
L 441.285222 -210.720446 
L 440.143996 -253.560046 
L 439.002771 -295.46897 
L 437.861546 -328.55397 
L 436.720321 -345.752379 
L 435.579096 -343.129268 
L 434.43787 -321.264097 
L 433.296645 -285.00935 
L 432.15542 -241.727458 
L 431.014195 -198.866399 
L 429.87297 -161.953078 
L 428.731745 -133.698337 
L 427.590519 -114.249129 
L 426.449294 -102.123544 
L 425.308069 -95.244925 
L 424.166844 -91.683067 
z
" id="m3c64711152" style="stroke:#dd8452;stroke-width:3;"/>
    </defs>
    <g clip-path="url(#p9c3e5b4f52)">
     <use style="fill:#dd8452;fill-opacity:0.25;stroke:#dd8452;stroke-width:3;" x="0" xlink:href="#m3c64711152" y="432"/>
    </g>
   </g>
   <g id="patch_9">
    <path d="M 403.4375 343.186813 
L 403.4375 62 
" style="fill:none;stroke:#262626;stroke-linecap:square;stroke-linejoin:miter;stroke-width:1.25;"/>
   </g>
   <g id="patch_10">
    <path d="M 403.4375 343.186813 
L 672 343.186813 
" style="fill:none;stroke:#262626;stroke-linecap:square;stroke-linejoin:miter;stroke-width:1.25;"/>
   </g>
   <g id="text_23">
    <!-- Shuffled network -->
    <g style="fill:#262626;" transform="translate(493.134063 56)scale(0.12 -0.12)">
     <defs>
      <path d="M 4.5 23 
L 13.421875 23.78125 
Q 14.0625 18.40625 16.375 14.96875 
Q 18.703125 11.53125 23.578125 9.40625 
Q 28.46875 7.28125 34.578125 7.28125 
Q 39.984375 7.28125 44.140625 8.890625 
Q 48.296875 10.5 50.3125 13.296875 
Q 52.34375 16.109375 52.34375 19.4375 
Q 52.34375 22.796875 50.390625 25.3125 
Q 48.4375 27.828125 43.953125 29.546875 
Q 41.0625 30.671875 31.203125 33.03125 
Q 21.34375 35.40625 17.390625 37.5 
Q 12.25 40.1875 9.734375 44.15625 
Q 7.234375 48.140625 7.234375 53.078125 
Q 7.234375 58.5 10.296875 63.203125 
Q 13.375 67.921875 19.28125 70.359375 
Q 25.203125 72.796875 32.421875 72.796875 
Q 40.375 72.796875 46.453125 70.234375 
Q 52.546875 67.671875 55.8125 62.6875 
Q 59.078125 57.71875 59.328125 51.421875 
L 50.25 50.734375 
Q 49.515625 57.515625 45.28125 60.984375 
Q 41.0625 64.453125 32.8125 64.453125 
Q 24.21875 64.453125 20.28125 61.296875 
Q 16.359375 58.15625 16.359375 53.71875 
Q 16.359375 49.859375 19.140625 47.359375 
Q 21.875 44.875 33.421875 42.265625 
Q 44.96875 39.65625 49.265625 37.703125 
Q 55.515625 34.8125 58.484375 30.390625 
Q 61.46875 25.984375 61.46875 20.21875 
Q 61.46875 14.5 58.203125 9.4375 
Q 54.9375 4.390625 48.796875 1.578125 
Q 42.671875 -1.21875 35.015625 -1.21875 
Q 25.296875 -1.21875 18.71875 1.609375 
Q 12.15625 4.4375 8.421875 10.125 
Q 4.6875 15.828125 4.5 23 
z
" id="ArialMT-83"/>
     </defs>
     <use xlink:href="#ArialMT-83"/>
     <use x="66.699219" xlink:href="#ArialMT-104"/>
     <use x="122.314453" xlink:href="#ArialMT-117"/>
     <use x="177.929688" xlink:href="#ArialMT-102"/>
     <use x="203.962891" xlink:href="#ArialMT-102"/>
     <use x="231.746094" xlink:href="#ArialMT-108"/>
     <use x="253.962891" xlink:href="#ArialMT-101"/>
     <use x="309.578125" xlink:href="#ArialMT-100"/>
     <use x="365.193359" xlink:href="#ArialMT-32"/>
     <use x="392.976562" xlink:href="#ArialMT-110"/>
     <use x="448.591797" xlink:href="#ArialMT-101"/>
     <use x="504.207031" xlink:href="#ArialMT-116"/>
     <use x="531.990234" xlink:href="#ArialMT-119"/>
     <use x="604.207031" xlink:href="#ArialMT-111"/>
     <use x="659.822266" xlink:href="#ArialMT-114"/>
     <use x="693.123047" xlink:href="#ArialMT-107"/>
    </g>
   </g>
   <g id="legend_2">
    <g id="patch_11">
     <path d="M 585.687812 102.048594 
L 664.3 102.048594 
Q 666.5 102.048594 666.5 99.848594 
L 666.5 69.7 
Q 666.5 67.5 664.3 67.5 
L 585.687812 67.5 
Q 583.487812 67.5 583.487812 69.7 
L 583.487812 99.848594 
Q 583.487812 102.048594 585.687812 102.048594 
z
" style="fill:#ffffff;opacity:0.8;stroke:#cccccc;stroke-linejoin:miter;"/>
    </g>
    <g id="patch_12">
     <path d="M 587.887812 79.773594 
L 609.887812 79.773594 
L 609.887812 72.073594 
L 587.887812 72.073594 
z
" style="fill:#4c72b0;fill-opacity:0.25;stroke:#4c72b0;stroke-linejoin:miter;stroke-width:3;"/>
    </g>
    <g id="text_24">
     <!-- Negative -->
     <g style="fill:#262626;" transform="translate(618.687812 79.773594)scale(0.11 -0.11)">
      <use xlink:href="#ArialMT-78"/>
      <use x="72.216797" xlink:href="#ArialMT-101"/>
      <use x="127.832031" xlink:href="#ArialMT-103"/>
      <use x="183.447266" xlink:href="#ArialMT-97"/>
      <use x="239.0625" xlink:href="#ArialMT-116"/>
      <use x="266.845703" xlink:href="#ArialMT-105"/>
      <use x="289.0625" xlink:href="#ArialMT-118"/>
      <use x="339.0625" xlink:href="#ArialMT-101"/>
     </g>
    </g>
    <g id="patch_13">
     <path d="M 587.887812 95.462344 
L 609.887812 95.462344 
L 609.887812 87.762344 
L 587.887812 87.762344 
z
" style="fill:#dd8452;fill-opacity:0.25;stroke:#dd8452;stroke-linejoin:miter;stroke-width:3;"/>
    </g>
    <g id="text_25">
     <!-- Positive -->
     <g style="fill:#262626;" transform="translate(618.687812 95.462344)scale(0.11 -0.11)">
      <use xlink:href="#ArialMT-80"/>
      <use x="66.699219" xlink:href="#ArialMT-111"/>
      <use x="122.314453" xlink:href="#ArialMT-115"/>
      <use x="172.314453" xlink:href="#ArialMT-105"/>
      <use x="194.53125" xlink:href="#ArialMT-116"/>
      <use x="222.314453" xlink:href="#ArialMT-105"/>
      <use x="244.53125" xlink:href="#ArialMT-118"/>
      <use x="294.53125" xlink:href="#ArialMT-101"/>
     </g>
    </g>
   </g>
  </g>
 </g>
 <defs>
  <clipPath id="p06ad78ffa2">
   <rect height="281.186812" width="268.5625" x="86.875" y="62"/>
  </clipPath>
  <clipPath id="p9c3e5b4f52">
   <rect height="281.186812" width="268.5625" x="403.4375" y="62"/>
  </clipPath>
 </defs>
</svg>
